<mxfile host="app.diagrams.net" modified="2024-01-12T14:44:16.012Z" agent="Mozilla/5.0 (Windows NT 10.0; Win64; x64) AppleWebKit/537.36 (KHTML, like Gecko) Chrome/118.0.0.0 Safari/537.36 OPR/104.0.0.0" etag="gM05icvc-hKCCiDe6UYV" version="22.1.17" type="google" pages="3">
  <diagram name="Контекстный уровень" id="qx1NstYaZnIzFtGlC036">
    <mxGraphModel grid="1" page="1" gridSize="10" guides="1" tooltips="1" connect="1" arrows="1" fold="1" pageScale="1" pageWidth="827" pageHeight="1169" math="0" shadow="0">
      <root>
        <mxCell id="0" />
        <mxCell id="1" parent="0" />
        <mxCell id="jQGq40ZsiOEScgllfeEC-1" value="Пользователь" style="rounded=0;whiteSpace=wrap;html=1;" vertex="1" parent="1">
          <mxGeometry x="350" y="80" width="120" height="60" as="geometry" />
        </mxCell>
        <mxCell id="jQGq40ZsiOEScgllfeEC-3" value="Устройство" style="rounded=0;whiteSpace=wrap;html=1;" vertex="1" parent="1">
          <mxGeometry x="180" y="555" width="120" height="60" as="geometry" />
        </mxCell>
        <mxCell id="jQGq40ZsiOEScgllfeEC-4" value="" style="endArrow=classic;html=1;rounded=0;exitX=0;exitY=0.383;exitDx=0;exitDy=0;edgeStyle=orthogonalEdgeStyle;entryX=-0.007;entryY=0.175;entryDx=0;entryDy=0;entryPerimeter=0;exitPerimeter=0;" edge="1" parent="1" source="jQGq40ZsiOEScgllfeEC-1" target="jQGq40ZsiOEScgllfeEC-7">
          <mxGeometry width="50" height="50" relative="1" as="geometry">
            <mxPoint x="290" y="100" as="sourcePoint" />
            <mxPoint x="280" y="440" as="targetPoint" />
            <Array as="points">
              <mxPoint x="350" y="100" />
              <mxPoint x="90" y="100" />
              <mxPoint x="90" y="440" />
              <mxPoint x="339" y="440" />
            </Array>
          </mxGeometry>
        </mxCell>
        <mxCell id="jQGq40ZsiOEScgllfeEC-5" value="создание&amp;nbsp;&lt;br&gt;ученой записи" style="edgeLabel;html=1;align=center;verticalAlign=middle;resizable=0;points=[];" connectable="0" vertex="1" parent="jQGq40ZsiOEScgllfeEC-4">
          <mxGeometry x="-0.2237" relative="1" as="geometry">
            <mxPoint as="offset" />
          </mxGeometry>
        </mxCell>
        <mxCell id="jQGq40ZsiOEScgllfeEC-6" value="0" style="swimlane;childLayout=stackLayout;horizontal=1;startSize=30;horizontalStack=0;rounded=1;fontSize=14;fontStyle=0;strokeWidth=1;resizeParent=0;resizeLast=1;shadow=0;dashed=0;align=center;fillColor=#FFFFFF;" vertex="1" parent="1">
          <mxGeometry x="340" y="400" width="150" height="110" as="geometry" />
        </mxCell>
        <mxCell id="jQGq40ZsiOEScgllfeEC-7" value="Приложение &quot;Stets&quot;" style="align=center;strokeColor=none;fillColor=none;spacingLeft=4;fontSize=12;verticalAlign=middle;resizable=0;rotatable=0;part=1;" vertex="1" parent="jQGq40ZsiOEScgllfeEC-6">
          <mxGeometry y="30" width="150" height="80" as="geometry" />
        </mxCell>
        <mxCell id="jQGq40ZsiOEScgllfeEC-9" value="" style="endArrow=classic;html=1;rounded=0;exitX=0.5;exitY=0;exitDx=0;exitDy=0;edgeStyle=orthogonalEdgeStyle;entryX=0;entryY=0.5;entryDx=0;entryDy=0;" edge="1" parent="1" source="jQGq40ZsiOEScgllfeEC-3" target="jQGq40ZsiOEScgllfeEC-7">
          <mxGeometry width="50" height="50" relative="1" as="geometry">
            <mxPoint x="480" y="540" as="sourcePoint" />
            <mxPoint x="530" y="490" as="targetPoint" />
          </mxGeometry>
        </mxCell>
        <mxCell id="jQGq40ZsiOEScgllfeEC-10" value="статус&amp;nbsp;&lt;br&gt;устройства" style="edgeLabel;html=1;align=center;verticalAlign=middle;resizable=0;points=[];" connectable="0" vertex="1" parent="jQGq40ZsiOEScgllfeEC-9">
          <mxGeometry x="-0.0703" relative="1" as="geometry">
            <mxPoint x="-1" y="40" as="offset" />
          </mxGeometry>
        </mxCell>
        <mxCell id="jQGq40ZsiOEScgllfeEC-11" value="" style="endArrow=classic;html=1;rounded=0;edgeStyle=orthogonalEdgeStyle;exitX=0;exitY=0.75;exitDx=0;exitDy=0;entryX=0;entryY=0;entryDx=0;entryDy=0;" edge="1" parent="1" source="jQGq40ZsiOEScgllfeEC-1" target="jQGq40ZsiOEScgllfeEC-7">
          <mxGeometry width="50" height="50" relative="1" as="geometry">
            <mxPoint x="470" y="320" as="sourcePoint" />
            <mxPoint x="520" y="270" as="targetPoint" />
            <Array as="points">
              <mxPoint x="130" y="125" />
              <mxPoint x="130" y="430" />
            </Array>
          </mxGeometry>
        </mxCell>
        <mxCell id="jQGq40ZsiOEScgllfeEC-12" value="авторизация" style="edgeLabel;html=1;align=center;verticalAlign=middle;resizable=0;points=[];" connectable="0" vertex="1" parent="jQGq40ZsiOEScgllfeEC-11">
          <mxGeometry x="0.0757" y="-2" relative="1" as="geometry">
            <mxPoint as="offset" />
          </mxGeometry>
        </mxCell>
        <mxCell id="jQGq40ZsiOEScgllfeEC-14" value="" style="endArrow=classic;html=1;rounded=0;edgeStyle=orthogonalEdgeStyle;exitX=0;exitY=0.75;exitDx=0;exitDy=0;entryX=0;entryY=0.191;entryDx=0;entryDy=0;entryPerimeter=0;" edge="1" parent="1" source="jQGq40ZsiOEScgllfeEC-1" target="jQGq40ZsiOEScgllfeEC-6">
          <mxGeometry width="50" height="50" relative="1" as="geometry">
            <mxPoint x="470" y="320" as="sourcePoint" />
            <mxPoint x="520" y="270" as="targetPoint" />
            <Array as="points">
              <mxPoint x="190" y="125" />
              <mxPoint x="190" y="421" />
            </Array>
          </mxGeometry>
        </mxCell>
        <mxCell id="jQGq40ZsiOEScgllfeEC-16" value="восстановление&amp;nbsp;&lt;br&gt;пароля" style="edgeLabel;html=1;align=center;verticalAlign=middle;resizable=0;points=[];" connectable="0" vertex="1" parent="jQGq40ZsiOEScgllfeEC-14">
          <mxGeometry x="-0.2938" relative="1" as="geometry">
            <mxPoint as="offset" />
          </mxGeometry>
        </mxCell>
        <mxCell id="jQGq40ZsiOEScgllfeEC-17" value="" style="endArrow=classic;html=1;rounded=0;edgeStyle=orthogonalEdgeStyle;exitX=0;exitY=0.75;exitDx=0;exitDy=0;" edge="1" parent="1" source="jQGq40ZsiOEScgllfeEC-1">
          <mxGeometry width="50" height="50" relative="1" as="geometry">
            <mxPoint x="530" y="330" as="sourcePoint" />
            <mxPoint x="340" y="420" as="targetPoint" />
            <Array as="points">
              <mxPoint x="250" y="125" />
              <mxPoint x="250" y="420" />
            </Array>
          </mxGeometry>
        </mxCell>
        <mxCell id="jQGq40ZsiOEScgllfeEC-18" value="редактирование&amp;nbsp;&lt;br&gt;данных" style="edgeLabel;html=1;align=center;verticalAlign=middle;resizable=0;points=[];" connectable="0" vertex="1" parent="jQGq40ZsiOEScgllfeEC-17">
          <mxGeometry x="0.0081" y="6" relative="1" as="geometry">
            <mxPoint as="offset" />
          </mxGeometry>
        </mxCell>
        <mxCell id="jQGq40ZsiOEScgllfeEC-19" value="" style="endArrow=classic;html=1;rounded=0;exitX=0.167;exitY=1.017;exitDx=0;exitDy=0;exitPerimeter=0;entryX=0.18;entryY=0.009;entryDx=0;entryDy=0;entryPerimeter=0;edgeStyle=orthogonalEdgeStyle;" edge="1" parent="1" source="jQGq40ZsiOEScgllfeEC-1" target="jQGq40ZsiOEScgllfeEC-6">
          <mxGeometry width="50" height="50" relative="1" as="geometry">
            <mxPoint x="530" y="330" as="sourcePoint" />
            <mxPoint x="580" y="280" as="targetPoint" />
            <Array as="points">
              <mxPoint x="300" y="141" />
              <mxPoint x="300" y="401" />
            </Array>
          </mxGeometry>
        </mxCell>
        <mxCell id="jQGq40ZsiOEScgllfeEC-20" value="добавление&amp;nbsp;&lt;br&gt;дополнительной&lt;br&gt;учетной записи" style="edgeLabel;html=1;align=center;verticalAlign=middle;resizable=0;points=[];" connectable="0" vertex="1" parent="jQGq40ZsiOEScgllfeEC-19">
          <mxGeometry x="0.0152" y="2" relative="1" as="geometry">
            <mxPoint y="-63" as="offset" />
          </mxGeometry>
        </mxCell>
        <mxCell id="jQGq40ZsiOEScgllfeEC-21" value="" style="endArrow=classic;html=1;rounded=0;exitX=0.183;exitY=1.017;exitDx=0;exitDy=0;exitPerimeter=0;entryX=0.213;entryY=0.009;entryDx=0;entryDy=0;entryPerimeter=0;" edge="1" parent="1" source="jQGq40ZsiOEScgllfeEC-1" target="jQGq40ZsiOEScgllfeEC-6">
          <mxGeometry width="50" height="50" relative="1" as="geometry">
            <mxPoint x="530" y="330" as="sourcePoint" />
            <mxPoint x="580" y="280" as="targetPoint" />
          </mxGeometry>
        </mxCell>
        <mxCell id="jQGq40ZsiOEScgllfeEC-22" value="выход из&lt;br&gt;учетной записи" style="edgeLabel;html=1;align=center;verticalAlign=middle;resizable=0;points=[];" connectable="0" vertex="1" parent="jQGq40ZsiOEScgllfeEC-21">
          <mxGeometry x="0.2585" y="-2" relative="1" as="geometry">
            <mxPoint as="offset" />
          </mxGeometry>
        </mxCell>
        <mxCell id="jQGq40ZsiOEScgllfeEC-23" value="" style="endArrow=classic;html=1;rounded=0;entryX=0.5;entryY=0;entryDx=0;entryDy=0;exitX=0.5;exitY=1;exitDx=0;exitDy=0;" edge="1" parent="1" source="jQGq40ZsiOEScgllfeEC-1" target="jQGq40ZsiOEScgllfeEC-6">
          <mxGeometry width="50" height="50" relative="1" as="geometry">
            <mxPoint x="464" y="142" as="sourcePoint" />
            <mxPoint x="580" y="280" as="targetPoint" />
          </mxGeometry>
        </mxCell>
        <mxCell id="jQGq40ZsiOEScgllfeEC-24" value="добавление&lt;br&gt;лампочки" style="edgeLabel;html=1;align=center;verticalAlign=middle;resizable=0;points=[];" connectable="0" vertex="1" parent="jQGq40ZsiOEScgllfeEC-23">
          <mxGeometry x="-0.2587" y="-2" relative="1" as="geometry">
            <mxPoint as="offset" />
          </mxGeometry>
        </mxCell>
        <mxCell id="jQGq40ZsiOEScgllfeEC-25" value="" style="endArrow=classic;html=1;rounded=0;edgeStyle=orthogonalEdgeStyle;entryX=0.68;entryY=0.009;entryDx=0;entryDy=0;entryPerimeter=0;" edge="1" parent="1" target="jQGq40ZsiOEScgllfeEC-6">
          <mxGeometry width="50" height="50" relative="1" as="geometry">
            <mxPoint x="434" y="140" as="sourcePoint" />
            <mxPoint x="490" y="415" as="targetPoint" />
            <Array as="points">
              <mxPoint x="440" y="140" />
              <mxPoint x="440" y="397" />
              <mxPoint x="442" y="397" />
            </Array>
          </mxGeometry>
        </mxCell>
        <mxCell id="jQGq40ZsiOEScgllfeEC-26" value="удаление&lt;br&gt;лампочки" style="edgeLabel;html=1;align=center;verticalAlign=middle;resizable=0;points=[];" connectable="0" vertex="1" parent="jQGq40ZsiOEScgllfeEC-25">
          <mxGeometry x="0.1562" y="3" relative="1" as="geometry">
            <mxPoint as="offset" />
          </mxGeometry>
        </mxCell>
        <mxCell id="jQGq40ZsiOEScgllfeEC-27" value="" style="endArrow=classic;html=1;rounded=0;exitX=0.925;exitY=1.05;exitDx=0;exitDy=0;edgeStyle=orthogonalEdgeStyle;exitPerimeter=0;" edge="1" parent="1" source="jQGq40ZsiOEScgllfeEC-1">
          <mxGeometry width="50" height="50" relative="1" as="geometry">
            <mxPoint x="530" y="330" as="sourcePoint" />
            <mxPoint x="460" y="400" as="targetPoint" />
            <Array as="points">
              <mxPoint x="480" y="143" />
              <mxPoint x="480" y="400" />
            </Array>
          </mxGeometry>
        </mxCell>
        <mxCell id="jQGq40ZsiOEScgllfeEC-28" value="включение/&lt;br&gt;отключение&amp;nbsp;&lt;br&gt;энергосберегающего&lt;br&gt;режима" style="edgeLabel;html=1;align=center;verticalAlign=middle;resizable=0;points=[];" connectable="0" vertex="1" parent="jQGq40ZsiOEScgllfeEC-27">
          <mxGeometry x="0.2246" y="2" relative="1" as="geometry">
            <mxPoint y="-130" as="offset" />
          </mxGeometry>
        </mxCell>
        <mxCell id="jQGq40ZsiOEScgllfeEC-29" value="" style="endArrow=classic;html=1;rounded=0;edgeStyle=orthogonalEdgeStyle;exitX=1;exitY=0.5;exitDx=0;exitDy=0;entryX=0.993;entryY=0.15;entryDx=0;entryDy=0;entryPerimeter=0;" edge="1" parent="1" source="jQGq40ZsiOEScgllfeEC-1" target="jQGq40ZsiOEScgllfeEC-7">
          <mxGeometry width="50" height="50" relative="1" as="geometry">
            <mxPoint x="530" y="330" as="sourcePoint" />
            <mxPoint x="580" y="280" as="targetPoint" />
            <Array as="points">
              <mxPoint x="540" y="110" />
              <mxPoint x="540" y="442" />
            </Array>
          </mxGeometry>
        </mxCell>
        <mxCell id="jQGq40ZsiOEScgllfeEC-30" value="добавление&lt;br&gt;&amp;nbsp;комнаты" style="edgeLabel;html=1;align=center;verticalAlign=middle;resizable=0;points=[];" connectable="0" vertex="1" parent="jQGq40ZsiOEScgllfeEC-29">
          <mxGeometry x="0.0668" y="2" relative="1" as="geometry">
            <mxPoint as="offset" />
          </mxGeometry>
        </mxCell>
        <mxCell id="jQGq40ZsiOEScgllfeEC-31" value="" style="endArrow=classic;html=1;rounded=0;edgeStyle=orthogonalEdgeStyle;entryX=1.013;entryY=0.138;entryDx=0;entryDy=0;entryPerimeter=0;" edge="1" parent="1" target="jQGq40ZsiOEScgllfeEC-7">
          <mxGeometry width="50" height="50" relative="1" as="geometry">
            <mxPoint x="470" y="110" as="sourcePoint" />
            <mxPoint x="580" y="280" as="targetPoint" />
            <Array as="points">
              <mxPoint x="600" y="110" />
              <mxPoint x="600" y="441" />
            </Array>
          </mxGeometry>
        </mxCell>
        <mxCell id="jQGq40ZsiOEScgllfeEC-32" value="редактирование&lt;br&gt;данных&lt;br&gt;комнаты" style="edgeLabel;html=1;align=center;verticalAlign=middle;resizable=0;points=[];" connectable="0" vertex="1" parent="jQGq40ZsiOEScgllfeEC-31">
          <mxGeometry x="-0.2536" y="2" relative="1" as="geometry">
            <mxPoint as="offset" />
          </mxGeometry>
        </mxCell>
        <mxCell id="jQGq40ZsiOEScgllfeEC-33" value="" style="endArrow=classic;html=1;rounded=0;exitX=1;exitY=0.5;exitDx=0;exitDy=0;edgeStyle=orthogonalEdgeStyle;" edge="1" parent="1" source="jQGq40ZsiOEScgllfeEC-1">
          <mxGeometry width="50" height="50" relative="1" as="geometry">
            <mxPoint x="530" y="330" as="sourcePoint" />
            <mxPoint x="490" y="439" as="targetPoint" />
            <Array as="points">
              <mxPoint x="660" y="110" />
              <mxPoint x="660" y="439" />
            </Array>
          </mxGeometry>
        </mxCell>
        <mxCell id="jQGq40ZsiOEScgllfeEC-34" value="удаление&lt;br&gt;комнаты" style="edgeLabel;html=1;align=center;verticalAlign=middle;resizable=0;points=[];" connectable="0" vertex="1" parent="jQGq40ZsiOEScgllfeEC-33">
          <mxGeometry x="0.0337" y="-4" relative="1" as="geometry">
            <mxPoint as="offset" />
          </mxGeometry>
        </mxCell>
        <mxCell id="jQGq40ZsiOEScgllfeEC-35" value="" style="endArrow=classic;html=1;rounded=0;edgeStyle=orthogonalEdgeStyle;entryX=1.013;entryY=0.425;entryDx=0;entryDy=0;entryPerimeter=0;" edge="1" parent="1" target="jQGq40ZsiOEScgllfeEC-7">
          <mxGeometry width="50" height="50" relative="1" as="geometry">
            <mxPoint x="470" y="110" as="sourcePoint" />
            <mxPoint x="580" y="280" as="targetPoint" />
            <Array as="points">
              <mxPoint x="730" y="110" />
              <mxPoint x="730" y="464" />
            </Array>
          </mxGeometry>
        </mxCell>
        <mxCell id="jQGq40ZsiOEScgllfeEC-36" value="добавление/&lt;br&gt;удаление&lt;br&gt;лампочки&amp;nbsp;&lt;br&gt;в клмнату" style="edgeLabel;html=1;align=center;verticalAlign=middle;resizable=0;points=[];" connectable="0" vertex="1" parent="jQGq40ZsiOEScgllfeEC-35">
          <mxGeometry x="0.1455" y="-1" relative="1" as="geometry">
            <mxPoint as="offset" />
          </mxGeometry>
        </mxCell>
        <mxCell id="jQGq40ZsiOEScgllfeEC-37" value="" style="endArrow=classic;html=1;rounded=0;edgeStyle=orthogonalEdgeStyle;entryX=1.033;entryY=0.425;entryDx=0;entryDy=0;entryPerimeter=0;" edge="1" parent="1" target="jQGq40ZsiOEScgllfeEC-7">
          <mxGeometry width="50" height="50" relative="1" as="geometry">
            <mxPoint x="470" y="110" as="sourcePoint" />
            <mxPoint x="580" y="280" as="targetPoint" />
            <Array as="points">
              <mxPoint x="800" y="110" />
              <mxPoint x="800" y="464" />
            </Array>
          </mxGeometry>
        </mxCell>
        <mxCell id="jQGq40ZsiOEScgllfeEC-38" value="включение/&lt;br&gt;выключение&lt;br&gt;лампочки" style="edgeLabel;html=1;align=center;verticalAlign=middle;resizable=0;points=[];" connectable="0" vertex="1" parent="jQGq40ZsiOEScgllfeEC-37">
          <mxGeometry x="0.0272" y="1" relative="1" as="geometry">
            <mxPoint as="offset" />
          </mxGeometry>
        </mxCell>
        <mxCell id="jQGq40ZsiOEScgllfeEC-39" value="" style="endArrow=classic;html=1;rounded=0;exitX=1;exitY=0.5;exitDx=0;exitDy=0;edgeStyle=orthogonalEdgeStyle;entryX=1;entryY=0.5;entryDx=0;entryDy=0;" edge="1" parent="1" source="jQGq40ZsiOEScgllfeEC-1" target="jQGq40ZsiOEScgllfeEC-7">
          <mxGeometry width="50" height="50" relative="1" as="geometry">
            <mxPoint x="530" y="330" as="sourcePoint" />
            <mxPoint x="580" y="280" as="targetPoint" />
            <Array as="points">
              <mxPoint x="870" y="110" />
              <mxPoint x="870" y="470" />
            </Array>
          </mxGeometry>
        </mxCell>
        <mxCell id="jQGq40ZsiOEScgllfeEC-40" value="создание &lt;br&gt;сценария" style="edgeLabel;html=1;align=center;verticalAlign=middle;resizable=0;points=[];" connectable="0" vertex="1" parent="jQGq40ZsiOEScgllfeEC-39">
          <mxGeometry x="-0.1517" y="-2" relative="1" as="geometry">
            <mxPoint as="offset" />
          </mxGeometry>
        </mxCell>
        <mxCell id="jQGq40ZsiOEScgllfeEC-41" value="" style="endArrow=classic;html=1;rounded=0;exitX=1;exitY=0.5;exitDx=0;exitDy=0;edgeStyle=orthogonalEdgeStyle;entryX=1;entryY=0.5;entryDx=0;entryDy=0;" edge="1" parent="1" source="jQGq40ZsiOEScgllfeEC-1" target="jQGq40ZsiOEScgllfeEC-7">
          <mxGeometry width="50" height="50" relative="1" as="geometry">
            <mxPoint x="530" y="330" as="sourcePoint" />
            <mxPoint x="580" y="280" as="targetPoint" />
            <Array as="points">
              <mxPoint x="940" y="110" />
              <mxPoint x="940" y="470" />
            </Array>
          </mxGeometry>
        </mxCell>
        <mxCell id="jQGq40ZsiOEScgllfeEC-42" value="управление&lt;br&gt;сценарием" style="edgeLabel;html=1;align=center;verticalAlign=middle;resizable=0;points=[];" connectable="0" vertex="1" parent="jQGq40ZsiOEScgllfeEC-41">
          <mxGeometry y="5" relative="1" as="geometry">
            <mxPoint as="offset" />
          </mxGeometry>
        </mxCell>
        <mxCell id="jQGq40ZsiOEScgllfeEC-43" value="" style="endArrow=classic;html=1;rounded=0;exitX=1;exitY=0.5;exitDx=0;exitDy=0;edgeStyle=orthogonalEdgeStyle;entryX=1;entryY=0.5;entryDx=0;entryDy=0;" edge="1" parent="1" source="jQGq40ZsiOEScgllfeEC-1" target="jQGq40ZsiOEScgllfeEC-7">
          <mxGeometry width="50" height="50" relative="1" as="geometry">
            <mxPoint x="530" y="330" as="sourcePoint" />
            <mxPoint x="580" y="280" as="targetPoint" />
            <Array as="points">
              <mxPoint x="1030" y="110" />
              <mxPoint x="1030" y="470" />
            </Array>
          </mxGeometry>
        </mxCell>
        <mxCell id="jQGq40ZsiOEScgllfeEC-44" value="удаление&lt;br&gt;сценария" style="edgeLabel;html=1;align=center;verticalAlign=middle;resizable=0;points=[];" connectable="0" vertex="1" parent="jQGq40ZsiOEScgllfeEC-43">
          <mxGeometry x="0.0808" y="2" relative="1" as="geometry">
            <mxPoint as="offset" />
          </mxGeometry>
        </mxCell>
        <mxCell id="jQGq40ZsiOEScgllfeEC-45" value="" style="endArrow=classic;html=1;rounded=0;exitX=0.073;exitY=1.013;exitDx=0;exitDy=0;exitPerimeter=0;edgeStyle=orthogonalEdgeStyle;entryX=1;entryY=0.5;entryDx=0;entryDy=0;" edge="1" parent="1" source="jQGq40ZsiOEScgllfeEC-7" target="jQGq40ZsiOEScgllfeEC-3">
          <mxGeometry width="50" height="50" relative="1" as="geometry">
            <mxPoint x="570" y="570" as="sourcePoint" />
            <mxPoint x="370" y="590" as="targetPoint" />
          </mxGeometry>
        </mxCell>
        <mxCell id="jQGq40ZsiOEScgllfeEC-46" value="включение&amp;nbsp;&lt;br&gt;лампочки" style="edgeLabel;html=1;align=center;verticalAlign=middle;resizable=0;points=[];" connectable="0" vertex="1" parent="jQGq40ZsiOEScgllfeEC-45">
          <mxGeometry x="-0.2989" relative="1" as="geometry">
            <mxPoint as="offset" />
          </mxGeometry>
        </mxCell>
        <mxCell id="jQGq40ZsiOEScgllfeEC-47" value="" style="endArrow=classic;html=1;rounded=0;exitX=0.46;exitY=1.013;exitDx=0;exitDy=0;exitPerimeter=0;edgeStyle=orthogonalEdgeStyle;entryX=1;entryY=0.5;entryDx=0;entryDy=0;" edge="1" parent="1" source="jQGq40ZsiOEScgllfeEC-7" target="jQGq40ZsiOEScgllfeEC-3">
          <mxGeometry width="50" height="50" relative="1" as="geometry">
            <mxPoint x="570" y="570" as="sourcePoint" />
            <mxPoint x="620" y="520" as="targetPoint" />
          </mxGeometry>
        </mxCell>
        <mxCell id="jQGq40ZsiOEScgllfeEC-49" value="отключение&lt;br&gt;лампочки" style="edgeLabel;html=1;align=center;verticalAlign=middle;resizable=0;points=[];" connectable="0" vertex="1" parent="jQGq40ZsiOEScgllfeEC-47">
          <mxGeometry x="-0.6944" y="-4" relative="1" as="geometry">
            <mxPoint as="offset" />
          </mxGeometry>
        </mxCell>
        <mxCell id="jQGq40ZsiOEScgllfeEC-50" value="" style="endArrow=classic;html=1;rounded=0;exitX=0.9;exitY=1.025;exitDx=0;exitDy=0;exitPerimeter=0;edgeStyle=orthogonalEdgeStyle;entryX=1.008;entryY=0.883;entryDx=0;entryDy=0;entryPerimeter=0;" edge="1" parent="1" source="jQGq40ZsiOEScgllfeEC-7" target="jQGq40ZsiOEScgllfeEC-3">
          <mxGeometry width="50" height="50" relative="1" as="geometry">
            <mxPoint x="570" y="570" as="sourcePoint" />
            <mxPoint x="620" y="520" as="targetPoint" />
            <Array as="points">
              <mxPoint x="475" y="610" />
              <mxPoint x="320" y="610" />
              <mxPoint x="320" y="608" />
            </Array>
          </mxGeometry>
        </mxCell>
        <mxCell id="jQGq40ZsiOEScgllfeEC-51" value="включение&lt;br&gt;энергосберегающего&lt;br&gt;режима" style="edgeLabel;html=1;align=center;verticalAlign=middle;resizable=0;points=[];" connectable="0" vertex="1" parent="jQGq40ZsiOEScgllfeEC-50">
          <mxGeometry x="-0.5402" relative="1" as="geometry">
            <mxPoint as="offset" />
          </mxGeometry>
        </mxCell>
      </root>
    </mxGraphModel>
  </diagram>
  <diagram id="xSRKUOkQ3K05Rh7GuxOi" name="Логический уровень">
    <mxGraphModel grid="1" page="1" gridSize="10" guides="1" tooltips="1" connect="1" arrows="1" fold="1" pageScale="1" pageWidth="827" pageHeight="1169" math="0" shadow="0">
      <root>
        <mxCell id="0" />
        <mxCell id="1" parent="0" />
        <mxCell id="cwUh-ZfgpbE7orhi7lQm-1" value="Пользователь" style="rounded=0;whiteSpace=wrap;html=1;" vertex="1" parent="1">
          <mxGeometry x="350" y="80" width="120" height="60" as="geometry" />
        </mxCell>
        <mxCell id="mmbIVKSoccHLoR4hbwkh-1" value="1" style="swimlane;childLayout=stackLayout;horizontal=1;startSize=30;horizontalStack=0;rounded=1;fontSize=14;fontStyle=0;strokeWidth=1;resizeParent=0;resizeLast=1;shadow=0;dashed=0;align=center;fillColor=#FFFFFF;" vertex="1" parent="1">
          <mxGeometry x="95" y="350" width="150" height="110" as="geometry" />
        </mxCell>
        <mxCell id="mmbIVKSoccHLoR4hbwkh-2" value="Управлять учетной&#xa; записью" style="align=center;strokeColor=none;fillColor=none;spacingLeft=4;fontSize=12;verticalAlign=middle;resizable=0;rotatable=0;part=1;" vertex="1" parent="mmbIVKSoccHLoR4hbwkh-1">
          <mxGeometry y="30" width="150" height="80" as="geometry" />
        </mxCell>
        <mxCell id="tBhSacp_uZdYQYT3b0RB-3" value="" style="endArrow=classic;html=1;rounded=0;exitX=0;exitY=0.5;exitDx=0;exitDy=0;edgeStyle=orthogonalEdgeStyle;entryX=0;entryY=0.25;entryDx=0;entryDy=0;" edge="1" parent="1" target="mmbIVKSoccHLoR4hbwkh-2">
          <mxGeometry width="50" height="50" relative="1" as="geometry">
            <mxPoint x="350" y="102.5" as="sourcePoint" />
            <mxPoint x="95" y="370" as="targetPoint" />
            <Array as="points">
              <mxPoint x="10" y="103" />
              <mxPoint x="10" y="400" />
            </Array>
          </mxGeometry>
        </mxCell>
        <mxCell id="tBhSacp_uZdYQYT3b0RB-4" value="запрос на&lt;br&gt;создание&amp;nbsp;&lt;br&gt;учетной записи" style="edgeLabel;html=1;align=center;verticalAlign=middle;resizable=0;points=[];" connectable="0" vertex="1" parent="tBhSacp_uZdYQYT3b0RB-3">
          <mxGeometry x="-0.1148" y="4" relative="1" as="geometry">
            <mxPoint x="-20" y="64" as="offset" />
          </mxGeometry>
        </mxCell>
        <mxCell id="tBhSacp_uZdYQYT3b0RB-5" value="D1&amp;nbsp; &amp;nbsp; &amp;nbsp;Пользователи" style="html=1;dashed=0;whiteSpace=wrap;shape=mxgraph.dfd.dataStoreID;align=left;spacingLeft=3;points=[[0,0],[0.5,0],[1,0],[0,0.5],[1,0.5],[0,1],[0.5,1],[1,1]];" vertex="1" parent="1">
          <mxGeometry x="20" y="555" width="120" height="30" as="geometry" />
        </mxCell>
        <mxCell id="tBhSacp_uZdYQYT3b0RB-6" value="" style="endArrow=classic;startArrow=classic;html=1;rounded=0;entryX=0;entryY=0.75;entryDx=0;entryDy=0;exitX=0.383;exitY=0.033;exitDx=0;exitDy=0;exitPerimeter=0;" edge="1" parent="1" source="tBhSacp_uZdYQYT3b0RB-5" target="mmbIVKSoccHLoR4hbwkh-2">
          <mxGeometry width="50" height="50" relative="1" as="geometry">
            <mxPoint x="150" y="550" as="sourcePoint" />
            <mxPoint x="420" y="400" as="targetPoint" />
            <Array as="points">
              <mxPoint x="66" y="440" />
            </Array>
          </mxGeometry>
        </mxCell>
        <mxCell id="tBhSacp_uZdYQYT3b0RB-7" value="&lt;br&gt;пользователи" style="edgeLabel;html=1;align=center;verticalAlign=middle;resizable=0;points=[];" connectable="0" vertex="1" parent="tBhSacp_uZdYQYT3b0RB-6">
          <mxGeometry x="-0.6321" y="-2" relative="1" as="geometry">
            <mxPoint y="-39" as="offset" />
          </mxGeometry>
        </mxCell>
        <mxCell id="tBhSacp_uZdYQYT3b0RB-9" value="" style="endArrow=classic;html=1;rounded=0;exitX=0;exitY=0.5;exitDx=0;exitDy=0;edgeStyle=orthogonalEdgeStyle;entryX=0;entryY=0;entryDx=0;entryDy=0;" edge="1" parent="1" source="cwUh-ZfgpbE7orhi7lQm-1" target="mmbIVKSoccHLoR4hbwkh-2">
          <mxGeometry width="50" height="50" relative="1" as="geometry">
            <mxPoint x="530" y="350" as="sourcePoint" />
            <mxPoint x="580" y="300" as="targetPoint" />
            <Array as="points">
              <mxPoint x="70" y="110" />
              <mxPoint x="70" y="380" />
            </Array>
          </mxGeometry>
        </mxCell>
        <mxCell id="tBhSacp_uZdYQYT3b0RB-10" value="запрос&amp;nbsp;&lt;br&gt;авторизации" style="edgeLabel;html=1;align=center;verticalAlign=middle;resizable=0;points=[];" connectable="0" vertex="1" parent="tBhSacp_uZdYQYT3b0RB-9">
          <mxGeometry x="0.2375" y="-3" relative="1" as="geometry">
            <mxPoint y="64" as="offset" />
          </mxGeometry>
        </mxCell>
        <mxCell id="tBhSacp_uZdYQYT3b0RB-11" value="" style="endArrow=classic;html=1;rounded=0;exitX=0;exitY=0.5;exitDx=0;exitDy=0;edgeStyle=orthogonalEdgeStyle;entryX=0.5;entryY=0;entryDx=0;entryDy=0;" edge="1" parent="1" source="cwUh-ZfgpbE7orhi7lQm-1" target="mmbIVKSoccHLoR4hbwkh-1">
          <mxGeometry width="50" height="50" relative="1" as="geometry">
            <mxPoint x="530" y="350" as="sourcePoint" />
            <mxPoint x="580" y="300" as="targetPoint" />
            <Array as="points">
              <mxPoint x="170" y="110" />
            </Array>
          </mxGeometry>
        </mxCell>
        <mxCell id="tBhSacp_uZdYQYT3b0RB-12" value="запрос на&lt;br&gt;восстановление&lt;br&gt;пароля" style="edgeLabel;html=1;align=center;verticalAlign=middle;resizable=0;points=[];" connectable="0" vertex="1" parent="tBhSacp_uZdYQYT3b0RB-11">
          <mxGeometry x="-0.146" y="5" relative="1" as="geometry">
            <mxPoint x="-1" y="125" as="offset" />
          </mxGeometry>
        </mxCell>
        <mxCell id="tBhSacp_uZdYQYT3b0RB-13" value="" style="endArrow=classic;html=1;rounded=0;exitX=0;exitY=0.5;exitDx=0;exitDy=0;entryX=0.133;entryY=-0.009;entryDx=0;entryDy=0;entryPerimeter=0;edgeStyle=orthogonalEdgeStyle;" edge="1" parent="1" source="cwUh-ZfgpbE7orhi7lQm-1" target="mmbIVKSoccHLoR4hbwkh-1">
          <mxGeometry width="50" height="50" relative="1" as="geometry">
            <mxPoint x="530" y="350" as="sourcePoint" />
            <mxPoint x="360" y="340" as="targetPoint" />
          </mxGeometry>
        </mxCell>
        <mxCell id="tBhSacp_uZdYQYT3b0RB-14" value="запрос на&lt;br&gt;редактирование&lt;br&gt;данных" style="edgeLabel;html=1;align=center;verticalAlign=middle;resizable=0;points=[];" connectable="0" vertex="1" parent="tBhSacp_uZdYQYT3b0RB-13">
          <mxGeometry x="-0.3203" y="-3" relative="1" as="geometry">
            <mxPoint x="-69" y="43" as="offset" />
          </mxGeometry>
        </mxCell>
        <mxCell id="tBhSacp_uZdYQYT3b0RB-15" value="" style="endArrow=classic;html=1;rounded=0;exitX=0;exitY=0.75;exitDx=0;exitDy=0;entryX=0.88;entryY=0;entryDx=0;entryDy=0;entryPerimeter=0;edgeStyle=orthogonalEdgeStyle;" edge="1" parent="1" source="cwUh-ZfgpbE7orhi7lQm-1" target="mmbIVKSoccHLoR4hbwkh-1">
          <mxGeometry width="50" height="50" relative="1" as="geometry">
            <mxPoint x="530" y="350" as="sourcePoint" />
            <mxPoint x="580" y="300" as="targetPoint" />
          </mxGeometry>
        </mxCell>
        <mxCell id="tBhSacp_uZdYQYT3b0RB-16" value="запрос на&lt;br&gt;добавление&lt;br&gt;дополнительной&lt;br&gt;учетной&lt;br&gt;записи" style="edgeLabel;html=1;align=center;verticalAlign=middle;resizable=0;points=[];" connectable="0" vertex="1" parent="tBhSacp_uZdYQYT3b0RB-15">
          <mxGeometry x="0.0047" y="1" relative="1" as="geometry">
            <mxPoint as="offset" />
          </mxGeometry>
        </mxCell>
        <mxCell id="tBhSacp_uZdYQYT3b0RB-17" value="" style="endArrow=classic;html=1;rounded=0;edgeStyle=orthogonalEdgeStyle;entryX=1;entryY=0.182;entryDx=0;entryDy=0;entryPerimeter=0;exitX=0;exitY=0.75;exitDx=0;exitDy=0;" edge="1" parent="1" source="cwUh-ZfgpbE7orhi7lQm-1" target="mmbIVKSoccHLoR4hbwkh-1">
          <mxGeometry width="50" height="50" relative="1" as="geometry">
            <mxPoint x="360" y="150" as="sourcePoint" />
            <mxPoint x="580" y="300" as="targetPoint" />
            <Array as="points">
              <mxPoint x="300" y="125" />
              <mxPoint x="300" y="370" />
            </Array>
          </mxGeometry>
        </mxCell>
        <mxCell id="tBhSacp_uZdYQYT3b0RB-18" value="запрос на&amp;nbsp;&lt;br&gt;выход из&lt;br&gt;учетной&lt;br&gt;записи" style="edgeLabel;html=1;align=center;verticalAlign=middle;resizable=0;points=[];" connectable="0" vertex="1" parent="tBhSacp_uZdYQYT3b0RB-17">
          <mxGeometry x="-0.0018" y="3" relative="1" as="geometry">
            <mxPoint x="-3" y="-30" as="offset" />
          </mxGeometry>
        </mxCell>
        <mxCell id="tBhSacp_uZdYQYT3b0RB-24" value="" style="endArrow=classic;html=1;rounded=0;edgeStyle=orthogonalEdgeStyle;exitX=0.842;exitY=-0.033;exitDx=0;exitDy=0;entryX=0.013;entryY=0.2;entryDx=0;entryDy=0;entryPerimeter=0;exitPerimeter=0;" edge="1" parent="1" source="cwUh-ZfgpbE7orhi7lQm-1" target="Shz6JQnmS7eIzR-oRJ9c-20">
          <mxGeometry width="50" height="50" relative="1" as="geometry">
            <mxPoint x="980" y="330" as="sourcePoint" />
            <mxPoint x="680" y="100" as="targetPoint" />
            <Array as="points">
              <mxPoint x="450" y="78" />
              <mxPoint x="450" y="-228" />
            </Array>
          </mxGeometry>
        </mxCell>
        <mxCell id="tBhSacp_uZdYQYT3b0RB-25" value="запрос на&lt;br&gt;добавление&amp;nbsp;&lt;br&gt;лампочки по&lt;br&gt;QR-коду" style="edgeLabel;html=1;align=center;verticalAlign=middle;resizable=0;points=[];" connectable="0" vertex="1" parent="tBhSacp_uZdYQYT3b0RB-24">
          <mxGeometry x="-0.0924" y="-2" relative="1" as="geometry">
            <mxPoint x="48" y="-55" as="offset" />
          </mxGeometry>
        </mxCell>
        <mxCell id="tBhSacp_uZdYQYT3b0RB-26" value="" style="endArrow=classic;html=1;rounded=0;exitX=0.833;exitY=-0.05;exitDx=0;exitDy=0;edgeStyle=orthogonalEdgeStyle;exitPerimeter=0;entryX=0.02;entryY=0.375;entryDx=0;entryDy=0;entryPerimeter=0;" edge="1" parent="1" source="cwUh-ZfgpbE7orhi7lQm-1" target="Shz6JQnmS7eIzR-oRJ9c-21">
          <mxGeometry width="50" height="50" relative="1" as="geometry">
            <mxPoint x="860" y="-50" as="sourcePoint" />
            <mxPoint x="670" y="-190" as="targetPoint" />
            <Array as="points">
              <mxPoint x="450" y="-120" />
              <mxPoint x="560" y="-120" />
              <mxPoint x="560" y="-190" />
            </Array>
          </mxGeometry>
        </mxCell>
        <mxCell id="tBhSacp_uZdYQYT3b0RB-27" value="запрос на&lt;br&gt;добавление&lt;br&gt;лампочки&lt;br&gt;вручную" style="edgeLabel;html=1;align=center;verticalAlign=middle;resizable=0;points=[];" connectable="0" vertex="1" parent="tBhSacp_uZdYQYT3b0RB-26">
          <mxGeometry x="0.0826" y="1" relative="1" as="geometry">
            <mxPoint as="offset" />
          </mxGeometry>
        </mxCell>
        <mxCell id="tBhSacp_uZdYQYT3b0RB-31" value="" style="endArrow=classic;html=1;rounded=0;exitX=0.842;exitY=0.033;exitDx=0;exitDy=0;edgeStyle=orthogonalEdgeStyle;exitPerimeter=0;entryX=0;entryY=0.638;entryDx=0;entryDy=0;entryPerimeter=0;" edge="1" parent="1" source="cwUh-ZfgpbE7orhi7lQm-1" target="Shz6JQnmS7eIzR-oRJ9c-21">
          <mxGeometry width="50" height="50" relative="1" as="geometry">
            <mxPoint x="790" y="50" as="sourcePoint" />
            <mxPoint x="640" y="-70" as="targetPoint" />
            <Array as="points">
              <mxPoint x="451" y="-50" />
              <mxPoint x="590" y="-50" />
              <mxPoint x="590" y="-169" />
            </Array>
          </mxGeometry>
        </mxCell>
        <mxCell id="tBhSacp_uZdYQYT3b0RB-32" value="запрос на&lt;br&gt;удаление&lt;br&gt;лампочки" style="edgeLabel;html=1;align=center;verticalAlign=middle;resizable=0;points=[];" connectable="0" vertex="1" parent="tBhSacp_uZdYQYT3b0RB-31">
          <mxGeometry x="-0.2988" relative="1" as="geometry">
            <mxPoint x="24" as="offset" />
          </mxGeometry>
        </mxCell>
        <mxCell id="tBhSacp_uZdYQYT3b0RB-33" value="" style="endArrow=classic;html=1;rounded=0;exitX=0.833;exitY=0.05;exitDx=0;exitDy=0;entryX=0.02;entryY=1;entryDx=0;entryDy=0;edgeStyle=orthogonalEdgeStyle;exitPerimeter=0;entryPerimeter=0;" edge="1" parent="1" source="cwUh-ZfgpbE7orhi7lQm-1" target="Shz6JQnmS7eIzR-oRJ9c-21">
          <mxGeometry width="50" height="50" relative="1" as="geometry">
            <mxPoint x="819" y="90" as="sourcePoint" />
            <mxPoint x="700" y="60" as="targetPoint" />
            <Array as="points">
              <mxPoint x="450" y="10" />
              <mxPoint x="640" y="10" />
              <mxPoint x="640" y="-140" />
            </Array>
          </mxGeometry>
        </mxCell>
        <mxCell id="tBhSacp_uZdYQYT3b0RB-34" value="запрос на включение&amp;nbsp;&lt;br&gt;энергосберегающего &lt;br&gt;режима" style="edgeLabel;html=1;align=center;verticalAlign=middle;resizable=0;points=[];" connectable="0" vertex="1" parent="tBhSacp_uZdYQYT3b0RB-33">
          <mxGeometry x="-0.0649" y="-1" relative="1" as="geometry">
            <mxPoint as="offset" />
          </mxGeometry>
        </mxCell>
        <mxCell id="tBhSacp_uZdYQYT3b0RB-35" value="" style="endArrow=classic;html=1;rounded=0;exitX=0.85;exitY=0.033;exitDx=0;exitDy=0;edgeStyle=orthogonalEdgeStyle;entryX=0.133;entryY=1.05;entryDx=0;entryDy=0;entryPerimeter=0;exitPerimeter=0;" edge="1" parent="1" source="cwUh-ZfgpbE7orhi7lQm-1" target="Shz6JQnmS7eIzR-oRJ9c-21">
          <mxGeometry width="50" height="50" relative="1" as="geometry">
            <mxPoint x="760" y="-30" as="sourcePoint" />
            <mxPoint x="761.9499999999998" y="303.03999999999996" as="targetPoint" />
            <Array as="points">
              <mxPoint x="452" y="60" />
              <mxPoint x="697" y="60" />
            </Array>
          </mxGeometry>
        </mxCell>
        <mxCell id="tBhSacp_uZdYQYT3b0RB-36" value="запрос на выключение&lt;br&gt;энергосберегающего&lt;br&gt;режима" style="edgeLabel;html=1;align=center;verticalAlign=middle;resizable=0;points=[];" connectable="0" vertex="1" parent="tBhSacp_uZdYQYT3b0RB-35">
          <mxGeometry x="0.101" y="-1" relative="1" as="geometry">
            <mxPoint x="15" y="-141" as="offset" />
          </mxGeometry>
        </mxCell>
        <mxCell id="tBhSacp_uZdYQYT3b0RB-37" value="" style="endArrow=classic;html=1;rounded=0;exitX=0.833;exitY=0.05;exitDx=0;exitDy=0;edgeStyle=orthogonalEdgeStyle;exitPerimeter=0;entryX=0.64;entryY=1;entryDx=0;entryDy=0;entryPerimeter=0;" edge="1" parent="1" source="cwUh-ZfgpbE7orhi7lQm-1" target="Shz6JQnmS7eIzR-oRJ9c-21">
          <mxGeometry width="50" height="50" relative="1" as="geometry">
            <mxPoint x="730" y="50" as="sourcePoint" />
            <mxPoint x="770" y="-130" as="targetPoint" />
            <Array as="points">
              <mxPoint x="450" y="60" />
              <mxPoint x="773" y="60" />
            </Array>
          </mxGeometry>
        </mxCell>
        <mxCell id="tBhSacp_uZdYQYT3b0RB-38" value="запрос на&amp;nbsp;&lt;br&gt;группировку&amp;nbsp;&lt;br&gt;лампочек&lt;br&gt;по комнатам" style="edgeLabel;html=1;align=center;verticalAlign=middle;resizable=0;points=[];" connectable="0" vertex="1" parent="tBhSacp_uZdYQYT3b0RB-37">
          <mxGeometry x="-0.2" y="4" relative="1" as="geometry">
            <mxPoint x="115" y="-66" as="offset" />
          </mxGeometry>
        </mxCell>
        <mxCell id="tBhSacp_uZdYQYT3b0RB-54" value="" style="endArrow=classic;html=1;rounded=0;exitX=0.083;exitY=-0.05;exitDx=0;exitDy=0;edgeStyle=orthogonalEdgeStyle;entryX=0.06;entryY=1;entryDx=0;entryDy=0;exitPerimeter=0;entryPerimeter=0;" edge="1" parent="1" source="cwUh-ZfgpbE7orhi7lQm-1" target="Shz6JQnmS7eIzR-oRJ9c-14">
          <mxGeometry width="50" height="50" relative="1" as="geometry">
            <mxPoint x="710" y="-270" as="sourcePoint" />
            <mxPoint x="710" y="50" as="targetPoint" />
            <Array as="points">
              <mxPoint x="360" y="50" />
              <mxPoint x="60" y="50" />
            </Array>
          </mxGeometry>
        </mxCell>
        <mxCell id="tBhSacp_uZdYQYT3b0RB-55" value="запрос на&lt;br&gt;редактирование&lt;br&gt;данных&lt;br&gt;комнаты" style="edgeLabel;html=1;align=center;verticalAlign=middle;resizable=0;points=[];" connectable="0" vertex="1" parent="tBhSacp_uZdYQYT3b0RB-54">
          <mxGeometry x="-0.0969" y="-2" relative="1" as="geometry">
            <mxPoint x="-116" y="-48" as="offset" />
          </mxGeometry>
        </mxCell>
        <mxCell id="tBhSacp_uZdYQYT3b0RB-56" value="" style="endArrow=classic;html=1;rounded=0;exitX=0.25;exitY=0;exitDx=0;exitDy=0;edgeStyle=orthogonalEdgeStyle;entryX=0.447;entryY=1.038;entryDx=0;entryDy=0;entryPerimeter=0;" edge="1" parent="1" source="cwUh-ZfgpbE7orhi7lQm-1" target="Shz6JQnmS7eIzR-oRJ9c-14">
          <mxGeometry width="50" height="50" relative="1" as="geometry">
            <mxPoint x="960" y="-260" as="sourcePoint" />
            <mxPoint x="960" y="60" as="targetPoint" />
            <Array as="points">
              <mxPoint x="380" y="20" />
              <mxPoint x="117" y="20" />
            </Array>
          </mxGeometry>
        </mxCell>
        <mxCell id="tBhSacp_uZdYQYT3b0RB-57" value="запрос на&lt;br&gt;добавление&lt;br&gt;иконки&lt;br&gt;комнате" style="edgeLabel;html=1;align=center;verticalAlign=middle;resizable=0;points=[];" connectable="0" vertex="1" parent="tBhSacp_uZdYQYT3b0RB-56">
          <mxGeometry x="0.212" y="3" relative="1" as="geometry">
            <mxPoint x="-10" y="-3" as="offset" />
          </mxGeometry>
        </mxCell>
        <mxCell id="tBhSacp_uZdYQYT3b0RB-60" value="" style="endArrow=classic;html=1;rounded=0;exitX=0.825;exitY=0.033;exitDx=0;exitDy=0;exitPerimeter=0;entryX=0.893;entryY=1;entryDx=0;entryDy=0;edgeStyle=orthogonalEdgeStyle;entryPerimeter=0;" edge="1" parent="1" source="cwUh-ZfgpbE7orhi7lQm-1" target="Shz6JQnmS7eIzR-oRJ9c-21">
          <mxGeometry width="50" height="50" relative="1" as="geometry">
            <mxPoint x="1140" y="-37" as="sourcePoint" />
            <mxPoint x="1142.04" y="197.02999999999997" as="targetPoint" />
            <Array as="points">
              <mxPoint x="449" y="60" />
              <mxPoint x="810" y="60" />
            </Array>
          </mxGeometry>
        </mxCell>
        <mxCell id="tBhSacp_uZdYQYT3b0RB-61" value="запрос на&lt;br&gt;включение&amp;nbsp;&lt;br&gt;лампочки" style="edgeLabel;html=1;align=center;verticalAlign=middle;resizable=0;points=[];" connectable="0" vertex="1" parent="tBhSacp_uZdYQYT3b0RB-60">
          <mxGeometry x="0.7433" y="-1" relative="1" as="geometry">
            <mxPoint y="-17" as="offset" />
          </mxGeometry>
        </mxCell>
        <mxCell id="tBhSacp_uZdYQYT3b0RB-62" value="" style="endArrow=classic;html=1;rounded=0;entryX=1.02;entryY=0.85;entryDx=0;entryDy=0;entryPerimeter=0;edgeStyle=orthogonalEdgeStyle;" edge="1" parent="1" target="Shz6JQnmS7eIzR-oRJ9c-21">
          <mxGeometry width="50" height="50" relative="1" as="geometry">
            <mxPoint x="450" y="81" as="sourcePoint" />
            <mxPoint x="1197.0900000000001" y="200" as="targetPoint" />
            <Array as="points">
              <mxPoint x="450" y="60" />
              <mxPoint x="880" y="60" />
              <mxPoint x="880" y="-152" />
            </Array>
          </mxGeometry>
        </mxCell>
        <mxCell id="tBhSacp_uZdYQYT3b0RB-63" value="запрос на&lt;br&gt;отключение&lt;br&gt;лампочки" style="edgeLabel;html=1;align=center;verticalAlign=middle;resizable=0;points=[];" connectable="0" vertex="1" parent="tBhSacp_uZdYQYT3b0RB-62">
          <mxGeometry x="-0.3057" y="-3" relative="1" as="geometry">
            <mxPoint x="203" y="-63" as="offset" />
          </mxGeometry>
        </mxCell>
        <mxCell id="tBhSacp_uZdYQYT3b0RB-64" value="" style="endArrow=classic;html=1;rounded=0;exitX=0.825;exitY=0.05;exitDx=0;exitDy=0;edgeStyle=orthogonalEdgeStyle;entryX=1;entryY=0;entryDx=0;entryDy=0;exitPerimeter=0;" edge="1" parent="1" source="cwUh-ZfgpbE7orhi7lQm-1" target="Shz6JQnmS7eIzR-oRJ9c-21">
          <mxGeometry width="50" height="50" relative="1" as="geometry">
            <mxPoint x="1211.04" y="-70" as="sourcePoint" />
            <mxPoint x="1241.04" y="250" as="targetPoint" />
            <Array as="points">
              <mxPoint x="449" y="60" />
              <mxPoint x="1030" y="60" />
              <mxPoint x="1030" y="-220" />
            </Array>
          </mxGeometry>
        </mxCell>
        <mxCell id="tBhSacp_uZdYQYT3b0RB-65" value="запрос на&amp;nbsp;&lt;br&gt;включение&lt;br&gt;сразу всех&lt;br&gt;лампочек" style="edgeLabel;html=1;align=center;verticalAlign=middle;resizable=0;points=[];" connectable="0" vertex="1" parent="tBhSacp_uZdYQYT3b0RB-64">
          <mxGeometry x="0.0732" y="-4" relative="1" as="geometry">
            <mxPoint x="21" y="-124" as="offset" />
          </mxGeometry>
        </mxCell>
        <mxCell id="tBhSacp_uZdYQYT3b0RB-66" value="" style="endArrow=classic;html=1;rounded=0;exitX=0.842;exitY=0.017;exitDx=0;exitDy=0;edgeStyle=orthogonalEdgeStyle;entryX=1;entryY=0.25;entryDx=0;entryDy=0;exitPerimeter=0;" edge="1" parent="1" source="cwUh-ZfgpbE7orhi7lQm-1" target="Shz6JQnmS7eIzR-oRJ9c-21">
          <mxGeometry width="50" height="50" relative="1" as="geometry">
            <mxPoint x="1211.04" y="-70" as="sourcePoint" />
            <mxPoint x="1241.04" y="250" as="targetPoint" />
            <Array as="points">
              <mxPoint x="451" y="60" />
              <mxPoint x="940" y="60" />
              <mxPoint x="940" y="-200" />
            </Array>
          </mxGeometry>
        </mxCell>
        <mxCell id="tBhSacp_uZdYQYT3b0RB-67" value="запрос на&lt;br&gt;отключение&lt;br&gt;сразу всех&lt;br&gt;лампочек" style="edgeLabel;html=1;align=center;verticalAlign=middle;resizable=0;points=[];" connectable="0" vertex="1" parent="tBhSacp_uZdYQYT3b0RB-66">
          <mxGeometry x="-0.2632" y="1" relative="1" as="geometry">
            <mxPoint x="195" y="-169" as="offset" />
          </mxGeometry>
        </mxCell>
        <mxCell id="tBhSacp_uZdYQYT3b0RB-68" value="" style="endArrow=classic;html=1;rounded=0;exitX=0.658;exitY=0.033;exitDx=0;exitDy=0;edgeStyle=orthogonalEdgeStyle;entryX=1;entryY=0.5;entryDx=0;entryDy=0;exitPerimeter=0;" edge="1" parent="1" source="cwUh-ZfgpbE7orhi7lQm-1" target="Shz6JQnmS7eIzR-oRJ9c-14">
          <mxGeometry width="50" height="50" relative="1" as="geometry">
            <mxPoint x="530" y="-260" as="sourcePoint" />
            <mxPoint x="560" y="60" as="targetPoint" />
            <Array as="points">
              <mxPoint x="429" y="-50" />
              <mxPoint x="430" y="-50" />
              <mxPoint x="430" y="-130" />
            </Array>
          </mxGeometry>
        </mxCell>
        <mxCell id="tBhSacp_uZdYQYT3b0RB-69" value="запрос на&lt;br&gt;удаление&lt;br&gt;&amp;nbsp;лампочки&amp;nbsp;&lt;br&gt;из комнаты" style="edgeLabel;html=1;align=center;verticalAlign=middle;resizable=0;points=[];" connectable="0" vertex="1" parent="tBhSacp_uZdYQYT3b0RB-68">
          <mxGeometry x="0.1016" y="-2" relative="1" as="geometry">
            <mxPoint as="offset" />
          </mxGeometry>
        </mxCell>
        <mxCell id="tBhSacp_uZdYQYT3b0RB-70" value="" style="endArrow=classic;html=1;rounded=0;edgeStyle=orthogonalEdgeStyle;entryX=0.173;entryY=-0.036;entryDx=0;entryDy=0;entryPerimeter=0;" edge="1" parent="1" target="Shz6JQnmS7eIzR-oRJ9c-2">
          <mxGeometry width="50" height="50" relative="1" as="geometry">
            <mxPoint x="440" y="142" as="sourcePoint" />
            <mxPoint x="480" y="470" as="targetPoint" />
            <Array as="points">
              <mxPoint x="440" y="142" />
            </Array>
          </mxGeometry>
        </mxCell>
        <mxCell id="tBhSacp_uZdYQYT3b0RB-71" value="запрос на&lt;br&gt;удаление &lt;br&gt;комнаты" style="edgeLabel;html=1;align=center;verticalAlign=middle;resizable=0;points=[];" connectable="0" vertex="1" parent="tBhSacp_uZdYQYT3b0RB-70">
          <mxGeometry x="-0.1974" relative="1" as="geometry">
            <mxPoint as="offset" />
          </mxGeometry>
        </mxCell>
        <mxCell id="tBhSacp_uZdYQYT3b0RB-102" value="" style="endArrow=classic;html=1;rounded=0;edgeStyle=orthogonalEdgeStyle;exitX=1;exitY=0.5;exitDx=0;exitDy=0;entryX=0;entryY=0.375;entryDx=0;entryDy=0;entryPerimeter=0;" edge="1" parent="1" source="cwUh-ZfgpbE7orhi7lQm-1" target="Shz6JQnmS7eIzR-oRJ9c-27">
          <mxGeometry width="50" height="50" relative="1" as="geometry">
            <mxPoint x="820" y="150" as="sourcePoint" />
            <mxPoint x="900" y="150" as="targetPoint" />
            <Array as="points">
              <mxPoint x="780" y="110" />
              <mxPoint x="780" y="320" />
            </Array>
          </mxGeometry>
        </mxCell>
        <mxCell id="tBhSacp_uZdYQYT3b0RB-103" value="запрос на&amp;nbsp;&lt;br&gt;добавление&lt;br&gt;сценария" style="edgeLabel;html=1;align=center;verticalAlign=middle;resizable=0;points=[];" connectable="0" vertex="1" parent="tBhSacp_uZdYQYT3b0RB-102">
          <mxGeometry x="-0.1056" y="-4" relative="1" as="geometry">
            <mxPoint x="33" y="146" as="offset" />
          </mxGeometry>
        </mxCell>
        <mxCell id="tBhSacp_uZdYQYT3b0RB-104" value="" style="endArrow=classic;html=1;rounded=0;edgeStyle=orthogonalEdgeStyle;entryX=0.147;entryY=-0.009;entryDx=0;entryDy=0;entryPerimeter=0;" edge="1" parent="1" target="Shz6JQnmS7eIzR-oRJ9c-26">
          <mxGeometry width="50" height="50" relative="1" as="geometry">
            <mxPoint x="470" y="110" as="sourcePoint" />
            <mxPoint x="1125" y="360" as="targetPoint" />
            <Array as="points">
              <mxPoint x="902" y="110" />
            </Array>
          </mxGeometry>
        </mxCell>
        <mxCell id="tBhSacp_uZdYQYT3b0RB-105" value="запрос на&lt;br&gt;запуск&amp;nbsp;&lt;br&gt;сценария" style="edgeLabel;html=1;align=center;verticalAlign=middle;resizable=0;points=[];" connectable="0" vertex="1" parent="tBhSacp_uZdYQYT3b0RB-104">
          <mxGeometry x="0.1011" y="-1" relative="1" as="geometry">
            <mxPoint x="110" y="49" as="offset" />
          </mxGeometry>
        </mxCell>
        <mxCell id="tBhSacp_uZdYQYT3b0RB-106" value="" style="endArrow=classic;html=1;rounded=0;entryX=0.313;entryY=0.027;entryDx=0;entryDy=0;entryPerimeter=0;edgeStyle=orthogonalEdgeStyle;exitX=1;exitY=0.5;exitDx=0;exitDy=0;" edge="1" parent="1" source="cwUh-ZfgpbE7orhi7lQm-1">
          <mxGeometry width="50" height="50" relative="1" as="geometry">
            <mxPoint x="950" y="40" as="sourcePoint" />
            <mxPoint x="955.9799999999998" y="259.9999999999998" as="targetPoint" />
            <Array as="points">
              <mxPoint x="956" y="110" />
            </Array>
          </mxGeometry>
        </mxCell>
        <mxCell id="tBhSacp_uZdYQYT3b0RB-107" value="запрос на&lt;br&gt;создание&amp;nbsp;&lt;br&gt;расписания&lt;br&gt;включения&lt;br&gt;сценария" style="edgeLabel;html=1;align=center;verticalAlign=middle;resizable=0;points=[];" connectable="0" vertex="1" parent="tBhSacp_uZdYQYT3b0RB-106">
          <mxGeometry x="-0.0286" y="1" relative="1" as="geometry">
            <mxPoint x="181" y="61" as="offset" />
          </mxGeometry>
        </mxCell>
        <mxCell id="tBhSacp_uZdYQYT3b0RB-108" value="" style="endArrow=classic;html=1;rounded=0;exitX=1;exitY=0.5;exitDx=0;exitDy=0;edgeStyle=orthogonalEdgeStyle;entryX=1;entryY=0.125;entryDx=0;entryDy=0;entryPerimeter=0;" edge="1" parent="1" source="cwUh-ZfgpbE7orhi7lQm-1" target="Shz6JQnmS7eIzR-oRJ9c-27">
          <mxGeometry width="50" height="50" relative="1" as="geometry">
            <mxPoint x="1160" y="50" as="sourcePoint" />
            <mxPoint x="1227" y="380" as="targetPoint" />
            <Array as="points">
              <mxPoint x="1050" y="110" />
              <mxPoint x="1050" y="300" />
            </Array>
          </mxGeometry>
        </mxCell>
        <mxCell id="tBhSacp_uZdYQYT3b0RB-109" value="запрос на&lt;br&gt;удаление&lt;br&gt;сценария" style="edgeLabel;html=1;align=center;verticalAlign=middle;resizable=0;points=[];" connectable="0" vertex="1" parent="tBhSacp_uZdYQYT3b0RB-108">
          <mxGeometry x="-0.164" y="4" relative="1" as="geometry">
            <mxPoint x="250" y="84" as="offset" />
          </mxGeometry>
        </mxCell>
        <mxCell id="Shz6JQnmS7eIzR-oRJ9c-2" value="2" style="swimlane;childLayout=stackLayout;horizontal=1;startSize=30;horizontalStack=0;rounded=1;fontSize=14;fontStyle=0;strokeWidth=1;resizeParent=0;resizeLast=1;shadow=0;dashed=0;align=center;fillColor=#FFFFFF;" vertex="1" parent="1">
          <mxGeometry x="414" y="390" width="150" height="110" as="geometry" />
        </mxCell>
        <mxCell id="Shz6JQnmS7eIzR-oRJ9c-3" value="Управлять домом" style="align=center;strokeColor=none;fillColor=none;spacingLeft=4;fontSize=12;verticalAlign=middle;resizable=0;rotatable=0;part=1;" vertex="1" parent="Shz6JQnmS7eIzR-oRJ9c-2">
          <mxGeometry y="30" width="150" height="80" as="geometry" />
        </mxCell>
        <mxCell id="Shz6JQnmS7eIzR-oRJ9c-4" value="" style="endArrow=classic;html=1;rounded=0;exitX=0.25;exitY=1;exitDx=0;exitDy=0;edgeStyle=orthogonalEdgeStyle;entryX=0;entryY=0.25;entryDx=0;entryDy=0;" edge="1" parent="1" source="cwUh-ZfgpbE7orhi7lQm-1" target="Shz6JQnmS7eIzR-oRJ9c-3">
          <mxGeometry width="50" height="50" relative="1" as="geometry">
            <mxPoint x="770" y="290" as="sourcePoint" />
            <mxPoint x="360" y="450" as="targetPoint" />
          </mxGeometry>
        </mxCell>
        <mxCell id="Shz6JQnmS7eIzR-oRJ9c-5" value="запрос на&lt;br&gt;добавление&amp;nbsp;&lt;br&gt;комнаты&amp;nbsp;" style="edgeLabel;html=1;align=center;verticalAlign=middle;resizable=0;points=[];" connectable="0" vertex="1" parent="Shz6JQnmS7eIzR-oRJ9c-4">
          <mxGeometry x="-0.1916" y="-3" relative="1" as="geometry">
            <mxPoint as="offset" />
          </mxGeometry>
        </mxCell>
        <mxCell id="Shz6JQnmS7eIzR-oRJ9c-6" value="D2&amp;nbsp; &amp;nbsp; &amp;nbsp;Дома" style="html=1;dashed=0;whiteSpace=wrap;shape=mxgraph.dfd.dataStoreID;align=left;spacingLeft=3;points=[[0,0],[0.5,0],[1,0],[0,0.5],[1,0.5],[0,1],[0.5,1],[1,1]];" vertex="1" parent="1">
          <mxGeometry x="310" y="585" width="120" height="30" as="geometry" />
        </mxCell>
        <mxCell id="Shz6JQnmS7eIzR-oRJ9c-7" value="" style="endArrow=classic;html=1;rounded=0;exitX=1;exitY=0.75;exitDx=0;exitDy=0;edgeStyle=orthogonalEdgeStyle;entryX=0.587;entryY=0.009;entryDx=0;entryDy=0;entryPerimeter=0;" edge="1" parent="1" source="cwUh-ZfgpbE7orhi7lQm-1" target="Shz6JQnmS7eIzR-oRJ9c-2">
          <mxGeometry width="50" height="50" relative="1" as="geometry">
            <mxPoint x="710" y="370" as="sourcePoint" />
            <mxPoint x="760" y="320" as="targetPoint" />
          </mxGeometry>
        </mxCell>
        <mxCell id="Shz6JQnmS7eIzR-oRJ9c-8" value="запрос на&amp;nbsp;&lt;br&gt;добавление&amp;nbsp;&lt;br&gt;дома" style="edgeLabel;html=1;align=center;verticalAlign=middle;resizable=0;points=[];" connectable="0" vertex="1" parent="Shz6JQnmS7eIzR-oRJ9c-7">
          <mxGeometry x="0.3358" y="1" relative="1" as="geometry">
            <mxPoint as="offset" />
          </mxGeometry>
        </mxCell>
        <mxCell id="Shz6JQnmS7eIzR-oRJ9c-9" value="" style="endArrow=classic;html=1;rounded=0;exitX=1;exitY=0.75;exitDx=0;exitDy=0;edgeStyle=orthogonalEdgeStyle;entryX=0.92;entryY=-0.009;entryDx=0;entryDy=0;entryPerimeter=0;" edge="1" parent="1" source="cwUh-ZfgpbE7orhi7lQm-1" target="Shz6JQnmS7eIzR-oRJ9c-2">
          <mxGeometry width="50" height="50" relative="1" as="geometry">
            <mxPoint x="710" y="370" as="sourcePoint" />
            <mxPoint x="760" y="320" as="targetPoint" />
          </mxGeometry>
        </mxCell>
        <mxCell id="Shz6JQnmS7eIzR-oRJ9c-10" value="запрос на &lt;br&gt;удаление &lt;br&gt;дома" style="edgeLabel;html=1;align=center;verticalAlign=middle;resizable=0;points=[];" connectable="0" vertex="1" parent="Shz6JQnmS7eIzR-oRJ9c-9">
          <mxGeometry x="0.1357" y="4" relative="1" as="geometry">
            <mxPoint as="offset" />
          </mxGeometry>
        </mxCell>
        <mxCell id="Shz6JQnmS7eIzR-oRJ9c-11" value="" style="endArrow=classic;startArrow=classic;html=1;rounded=0;exitX=0.383;exitY=0.067;exitDx=0;exitDy=0;exitPerimeter=0;edgeStyle=orthogonalEdgeStyle;entryX=-0.02;entryY=0.613;entryDx=0;entryDy=0;entryPerimeter=0;" edge="1" parent="1" source="Shz6JQnmS7eIzR-oRJ9c-6" target="Shz6JQnmS7eIzR-oRJ9c-3">
          <mxGeometry width="50" height="50" relative="1" as="geometry">
            <mxPoint x="710" y="570" as="sourcePoint" />
            <mxPoint x="760" y="520" as="targetPoint" />
            <Array as="points">
              <mxPoint x="356" y="469" />
            </Array>
          </mxGeometry>
        </mxCell>
        <mxCell id="Shz6JQnmS7eIzR-oRJ9c-12" value="дома" style="edgeLabel;html=1;align=center;verticalAlign=middle;resizable=0;points=[];" connectable="0" vertex="1" parent="Shz6JQnmS7eIzR-oRJ9c-11">
          <mxGeometry x="-0.1676" y="2" relative="1" as="geometry">
            <mxPoint as="offset" />
          </mxGeometry>
        </mxCell>
        <mxCell id="Shz6JQnmS7eIzR-oRJ9c-13" value="3" style="swimlane;childLayout=stackLayout;horizontal=1;startSize=30;horizontalStack=0;rounded=1;fontSize=14;fontStyle=0;strokeWidth=1;resizeParent=0;resizeLast=1;shadow=0;dashed=0;align=center;fillColor=#FFFFFF;" vertex="1" parent="1">
          <mxGeometry x="50" y="-200" width="150" height="110" as="geometry" />
        </mxCell>
        <mxCell id="Shz6JQnmS7eIzR-oRJ9c-14" value="Управлять комнатами" style="align=center;strokeColor=none;fillColor=none;spacingLeft=4;fontSize=12;verticalAlign=middle;resizable=0;rotatable=0;part=1;" vertex="1" parent="Shz6JQnmS7eIzR-oRJ9c-13">
          <mxGeometry y="30" width="150" height="80" as="geometry" />
        </mxCell>
        <mxCell id="Shz6JQnmS7eIzR-oRJ9c-16" value="D3&amp;nbsp; &amp;nbsp; &amp;nbsp;Комнаты" style="html=1;dashed=0;whiteSpace=wrap;shape=mxgraph.dfd.dataStoreID;align=left;spacingLeft=3;points=[[0,0],[0.5,0],[1,0],[0,0.5],[1,0.5],[0,1],[0.5,1],[1,1]];" vertex="1" parent="1">
          <mxGeometry x="50" y="-380" width="120" height="30" as="geometry" />
        </mxCell>
        <mxCell id="Shz6JQnmS7eIzR-oRJ9c-17" value="" style="endArrow=classic;startArrow=classic;html=1;rounded=0;exitX=0.5;exitY=1;exitDx=0;exitDy=0;edgeStyle=orthogonalEdgeStyle;" edge="1" parent="1" source="Shz6JQnmS7eIzR-oRJ9c-16" target="Shz6JQnmS7eIzR-oRJ9c-13">
          <mxGeometry width="50" height="50" relative="1" as="geometry">
            <mxPoint x="400" y="-140" as="sourcePoint" />
            <mxPoint x="450" y="-190" as="targetPoint" />
          </mxGeometry>
        </mxCell>
        <mxCell id="Shz6JQnmS7eIzR-oRJ9c-18" value="комнаты" style="edgeLabel;html=1;align=center;verticalAlign=middle;resizable=0;points=[];" connectable="0" vertex="1" parent="Shz6JQnmS7eIzR-oRJ9c-17">
          <mxGeometry x="-0.5368" y="-2" relative="1" as="geometry">
            <mxPoint as="offset" />
          </mxGeometry>
        </mxCell>
        <mxCell id="tBhSacp_uZdYQYT3b0RB-58" value="" style="endArrow=classic;html=1;rounded=0;exitX=0.433;exitY=0;exitDx=0;exitDy=0;edgeStyle=orthogonalEdgeStyle;exitPerimeter=0;entryX=0.887;entryY=1.025;entryDx=0;entryDy=0;entryPerimeter=0;" edge="1" parent="1" source="cwUh-ZfgpbE7orhi7lQm-1" target="Shz6JQnmS7eIzR-oRJ9c-14">
          <mxGeometry width="50" height="50" relative="1" as="geometry">
            <mxPoint x="400" y="-160" as="sourcePoint" />
            <mxPoint x="326" y="-204" as="targetPoint" />
            <Array as="points">
              <mxPoint x="402" y="-20" />
              <mxPoint x="180" y="-20" />
              <mxPoint x="180" y="-88" />
            </Array>
          </mxGeometry>
        </mxCell>
        <mxCell id="tBhSacp_uZdYQYT3b0RB-59" value="запрос на&amp;nbsp;&lt;br&gt;добавление&lt;br&gt;лампочки в&lt;br&gt;комнату&amp;nbsp;" style="edgeLabel;html=1;align=center;verticalAlign=middle;resizable=0;points=[];" connectable="0" vertex="1" parent="tBhSacp_uZdYQYT3b0RB-58">
          <mxGeometry x="-0.0917" relative="1" as="geometry">
            <mxPoint x="-53" as="offset" />
          </mxGeometry>
        </mxCell>
        <mxCell id="Shz6JQnmS7eIzR-oRJ9c-20" value="4" style="swimlane;childLayout=stackLayout;horizontal=1;startSize=30;horizontalStack=0;rounded=1;fontSize=14;fontStyle=0;strokeWidth=1;resizeParent=0;resizeLast=1;shadow=0;dashed=0;align=center;fillColor=#FFFFFF;" vertex="1" parent="1">
          <mxGeometry x="677" y="-250" width="150" height="110" as="geometry" />
        </mxCell>
        <mxCell id="Shz6JQnmS7eIzR-oRJ9c-21" value="Управлять устройствами" style="align=center;strokeColor=none;fillColor=none;spacingLeft=4;fontSize=12;verticalAlign=middle;resizable=0;rotatable=0;part=1;" vertex="1" parent="Shz6JQnmS7eIzR-oRJ9c-20">
          <mxGeometry y="30" width="150" height="80" as="geometry" />
        </mxCell>
        <mxCell id="Shz6JQnmS7eIzR-oRJ9c-23" value="D4&amp;nbsp; &amp;nbsp; &amp;nbsp;Устройства" style="html=1;dashed=0;whiteSpace=wrap;shape=mxgraph.dfd.dataStoreID;align=left;spacingLeft=3;points=[[0,0],[0.5,0],[1,0],[0,0.5],[1,0.5],[0,1],[0.5,1],[1,1]];" vertex="1" parent="1">
          <mxGeometry x="557" y="-420" width="120" height="30" as="geometry" />
        </mxCell>
        <mxCell id="Shz6JQnmS7eIzR-oRJ9c-24" value="" style="endArrow=classic;startArrow=classic;html=1;rounded=0;entryX=0.45;entryY=1.033;entryDx=0;entryDy=0;entryPerimeter=0;exitX=0.353;exitY=0;exitDx=0;exitDy=0;exitPerimeter=0;edgeStyle=orthogonalEdgeStyle;" edge="1" parent="1" source="Shz6JQnmS7eIzR-oRJ9c-20" target="Shz6JQnmS7eIzR-oRJ9c-23">
          <mxGeometry width="50" height="50" relative="1" as="geometry">
            <mxPoint x="400" y="-250" as="sourcePoint" />
            <mxPoint x="450" y="-300" as="targetPoint" />
          </mxGeometry>
        </mxCell>
        <mxCell id="Shz6JQnmS7eIzR-oRJ9c-25" value="устройства" style="edgeLabel;html=1;align=center;verticalAlign=middle;resizable=0;points=[];" connectable="0" vertex="1" parent="Shz6JQnmS7eIzR-oRJ9c-24">
          <mxGeometry x="0.062" y="2" relative="1" as="geometry">
            <mxPoint as="offset" />
          </mxGeometry>
        </mxCell>
        <mxCell id="Shz6JQnmS7eIzR-oRJ9c-26" value="5" style="swimlane;childLayout=stackLayout;horizontal=1;startSize=30;horizontalStack=0;rounded=1;fontSize=14;fontStyle=0;strokeWidth=1;resizeParent=0;resizeLast=1;shadow=0;dashed=0;align=center;fillColor=#FFFFFF;" vertex="1" parent="1">
          <mxGeometry x="880" y="260" width="150" height="110" as="geometry" />
        </mxCell>
        <mxCell id="Shz6JQnmS7eIzR-oRJ9c-27" value="Управлять сценарием" style="align=center;strokeColor=none;fillColor=none;spacingLeft=4;fontSize=12;verticalAlign=middle;resizable=0;rotatable=0;part=1;" vertex="1" parent="Shz6JQnmS7eIzR-oRJ9c-26">
          <mxGeometry y="30" width="150" height="80" as="geometry" />
        </mxCell>
        <mxCell id="Shz6JQnmS7eIzR-oRJ9c-29" value="D5&amp;nbsp; &amp;nbsp; &amp;nbsp;Сценарии" style="html=1;dashed=0;whiteSpace=wrap;shape=mxgraph.dfd.dataStoreID;align=left;spacingLeft=3;points=[[0,0],[0.5,0],[1,0],[0,0.5],[1,0.5],[0,1],[0.5,1],[1,1]];" vertex="1" parent="1">
          <mxGeometry x="880" y="490" width="120" height="30" as="geometry" />
        </mxCell>
        <mxCell id="Shz6JQnmS7eIzR-oRJ9c-30" value="" style="endArrow=classic;startArrow=classic;html=1;rounded=0;exitX=0.433;exitY=0;exitDx=0;exitDy=0;exitPerimeter=0;entryX=0.34;entryY=1;entryDx=0;entryDy=0;entryPerimeter=0;" edge="1" parent="1" source="Shz6JQnmS7eIzR-oRJ9c-29" target="Shz6JQnmS7eIzR-oRJ9c-27">
          <mxGeometry width="50" height="50" relative="1" as="geometry">
            <mxPoint x="1030" y="410" as="sourcePoint" />
            <mxPoint x="1080" y="360" as="targetPoint" />
          </mxGeometry>
        </mxCell>
        <mxCell id="Shz6JQnmS7eIzR-oRJ9c-31" value="сценарии" style="edgeLabel;html=1;align=center;verticalAlign=middle;resizable=0;points=[];" connectable="0" vertex="1" parent="Shz6JQnmS7eIzR-oRJ9c-30">
          <mxGeometry x="0.2003" y="-1" relative="1" as="geometry">
            <mxPoint as="offset" />
          </mxGeometry>
        </mxCell>
        <mxCell id="hsEbNvkn5rJlsbx2Cg8S-1" value="Устройство" style="rounded=0;whiteSpace=wrap;html=1;" vertex="1" parent="1">
          <mxGeometry x="920" y="-530" width="120" height="60" as="geometry" />
        </mxCell>
        <mxCell id="hsEbNvkn5rJlsbx2Cg8S-2" value="" style="endArrow=classic;html=1;rounded=0;edgeStyle=orthogonalEdgeStyle;exitX=0.572;exitY=-0.029;exitDx=0;exitDy=0;exitPerimeter=0;entryX=0;entryY=0.75;entryDx=0;entryDy=0;" edge="1" parent="1" source="Shz6JQnmS7eIzR-oRJ9c-20" target="hsEbNvkn5rJlsbx2Cg8S-1">
          <mxGeometry width="50" height="50" relative="1" as="geometry">
            <mxPoint x="970" y="-320" as="sourcePoint" />
            <mxPoint x="1020" y="-370" as="targetPoint" />
            <Array as="points">
              <mxPoint x="763" y="-310" />
              <mxPoint x="860" y="-310" />
              <mxPoint x="860" y="-485" />
            </Array>
          </mxGeometry>
        </mxCell>
        <mxCell id="hsEbNvkn5rJlsbx2Cg8S-3" value="запрос на&amp;nbsp;&lt;br&gt;включение &lt;br&gt;энергосберегающего &lt;br&gt;режима" style="edgeLabel;html=1;align=center;verticalAlign=middle;resizable=0;points=[];" connectable="0" vertex="1" parent="hsEbNvkn5rJlsbx2Cg8S-2">
          <mxGeometry x="0.362" y="2" relative="1" as="geometry">
            <mxPoint as="offset" />
          </mxGeometry>
        </mxCell>
        <mxCell id="hsEbNvkn5rJlsbx2Cg8S-4" value="" style="endArrow=classic;html=1;rounded=0;edgeStyle=orthogonalEdgeStyle;exitX=0.572;exitY=0.005;exitDx=0;exitDy=0;exitPerimeter=0;entryX=0.166;entryY=1.041;entryDx=0;entryDy=0;entryPerimeter=0;" edge="1" parent="1" source="Shz6JQnmS7eIzR-oRJ9c-20" target="hsEbNvkn5rJlsbx2Cg8S-1">
          <mxGeometry width="50" height="50" relative="1" as="geometry">
            <mxPoint x="970" y="-320" as="sourcePoint" />
            <mxPoint x="1020" y="-370" as="targetPoint" />
            <Array as="points">
              <mxPoint x="763" y="-310" />
              <mxPoint x="940" y="-310" />
            </Array>
          </mxGeometry>
        </mxCell>
        <mxCell id="hsEbNvkn5rJlsbx2Cg8S-5" value="запрос на&lt;br&gt;выключение&amp;nbsp;&lt;br&gt;энергосберегающего&lt;br&gt;&amp;nbsp;режима" style="edgeLabel;html=1;align=center;verticalAlign=middle;resizable=0;points=[];" connectable="0" vertex="1" parent="hsEbNvkn5rJlsbx2Cg8S-4">
          <mxGeometry x="0.6975" y="-2" relative="1" as="geometry">
            <mxPoint x="-2" y="43" as="offset" />
          </mxGeometry>
        </mxCell>
        <mxCell id="hsEbNvkn5rJlsbx2Cg8S-6" value="" style="endArrow=classic;html=1;rounded=0;edgeStyle=orthogonalEdgeStyle;exitX=0.565;exitY=-0.021;exitDx=0;exitDy=0;exitPerimeter=0;" edge="1" parent="1" source="Shz6JQnmS7eIzR-oRJ9c-20">
          <mxGeometry width="50" height="50" relative="1" as="geometry">
            <mxPoint x="1030" y="-260" as="sourcePoint" />
            <mxPoint x="998" y="-471" as="targetPoint" />
            <Array as="points">
              <mxPoint x="762" y="-310" />
              <mxPoint x="995" y="-310" />
              <mxPoint x="995" y="-460" />
              <mxPoint x="998" y="-460" />
            </Array>
          </mxGeometry>
        </mxCell>
        <mxCell id="hsEbNvkn5rJlsbx2Cg8S-7" value="запрос на &lt;br&gt;включение&lt;br&gt;устройства&amp;nbsp;" style="edgeLabel;html=1;align=center;verticalAlign=middle;resizable=0;points=[];" connectable="0" vertex="1" parent="hsEbNvkn5rJlsbx2Cg8S-6">
          <mxGeometry x="0.4212" y="1" relative="1" as="geometry">
            <mxPoint x="-1" y="-79" as="offset" />
          </mxGeometry>
        </mxCell>
        <mxCell id="hsEbNvkn5rJlsbx2Cg8S-8" value="" style="endArrow=classic;html=1;rounded=0;edgeStyle=orthogonalEdgeStyle;exitX=0.578;exitY=0.014;exitDx=0;exitDy=0;exitPerimeter=0;entryX=0.928;entryY=1.025;entryDx=0;entryDy=0;entryPerimeter=0;" edge="1" parent="1" source="Shz6JQnmS7eIzR-oRJ9c-20" target="hsEbNvkn5rJlsbx2Cg8S-1">
          <mxGeometry width="50" height="50" relative="1" as="geometry">
            <mxPoint x="1030" y="-260" as="sourcePoint" />
            <mxPoint x="1080" y="-310" as="targetPoint" />
            <Array as="points">
              <mxPoint x="764" y="-310" />
              <mxPoint x="1031" y="-310" />
            </Array>
          </mxGeometry>
        </mxCell>
        <mxCell id="hsEbNvkn5rJlsbx2Cg8S-9" value="запрос на&lt;br&gt;выключение&amp;nbsp;&lt;br&gt;устройства" style="edgeLabel;html=1;align=center;verticalAlign=middle;resizable=0;points=[];" connectable="0" vertex="1" parent="hsEbNvkn5rJlsbx2Cg8S-8">
          <mxGeometry x="0.4961" y="3" relative="1" as="geometry">
            <mxPoint as="offset" />
          </mxGeometry>
        </mxCell>
        <mxCell id="hsEbNvkn5rJlsbx2Cg8S-10" value="" style="endArrow=classic;startArrow=classic;html=1;rounded=0;edgeStyle=orthogonalEdgeStyle;entryX=0;entryY=0.25;entryDx=0;entryDy=0;exitX=0.5;exitY=0;exitDx=0;exitDy=0;" edge="1" parent="1" source="Shz6JQnmS7eIzR-oRJ9c-23" target="hsEbNvkn5rJlsbx2Cg8S-1">
          <mxGeometry width="50" height="50" relative="1" as="geometry">
            <mxPoint x="727" y="-510" as="sourcePoint" />
            <mxPoint x="777" y="-560" as="targetPoint" />
          </mxGeometry>
        </mxCell>
        <mxCell id="hsEbNvkn5rJlsbx2Cg8S-11" value="устройства" style="edgeLabel;html=1;align=center;verticalAlign=middle;resizable=0;points=[];" connectable="0" vertex="1" parent="hsEbNvkn5rJlsbx2Cg8S-10">
          <mxGeometry x="0.1331" y="3" relative="1" as="geometry">
            <mxPoint as="offset" />
          </mxGeometry>
        </mxCell>
      </root>
    </mxGraphModel>
  </diagram>
  <diagram id="m1nb9XMcTTYVNp8NOJ9B" name="ER-диаграмма">
    <mxGraphModel grid="1" page="1" gridSize="10" guides="1" tooltips="1" connect="1" arrows="1" fold="1" pageScale="1" pageWidth="827" pageHeight="1169" math="0" shadow="0">
      <root>
        <mxCell id="0" />
        <mxCell id="1" parent="0" />
        <mxCell id="9_xHHx5jtFG19MMG9YjI-1" value="Пользователь" style="swimlane;childLayout=stackLayout;horizontal=1;startSize=50;horizontalStack=0;rounded=1;fontSize=14;fontStyle=0;strokeWidth=2;resizeParent=0;resizeLast=1;shadow=0;dashed=0;align=center;arcSize=4;whiteSpace=wrap;html=1;" vertex="1" parent="1">
          <mxGeometry x="-320" y="160" width="190" height="125" as="geometry" />
        </mxCell>
        <mxCell id="9_xHHx5jtFG19MMG9YjI-2" value="* e-mail&lt;br&gt;имя&amp;nbsp;&lt;br&gt;пароль&lt;br&gt;" style="align=left;strokeColor=none;fillColor=none;spacingLeft=4;fontSize=12;verticalAlign=top;resizable=0;rotatable=0;part=1;html=1;" vertex="1" parent="9_xHHx5jtFG19MMG9YjI-1">
          <mxGeometry y="50" width="190" height="75" as="geometry" />
        </mxCell>
        <mxCell id="9_xHHx5jtFG19MMG9YjI-5" value="Дом" style="swimlane;childLayout=stackLayout;horizontal=1;startSize=50;horizontalStack=0;rounded=1;fontSize=14;fontStyle=0;strokeWidth=2;resizeParent=0;resizeLast=1;shadow=0;dashed=0;align=center;arcSize=4;whiteSpace=wrap;html=1;" vertex="1" parent="1">
          <mxGeometry x="380" y="190" width="160" height="150" as="geometry" />
        </mxCell>
        <mxCell id="9_xHHx5jtFG19MMG9YjI-6" value="*название дома&lt;br&gt;количество комнат&lt;br&gt;количество устройств" style="align=left;strokeColor=none;fillColor=none;spacingLeft=4;fontSize=12;verticalAlign=top;resizable=0;rotatable=0;part=1;html=1;" vertex="1" parent="9_xHHx5jtFG19MMG9YjI-5">
          <mxGeometry y="50" width="160" height="100" as="geometry" />
        </mxCell>
        <mxCell id="qg3Lb8YQpvy-kD-05aAl-1" value="Устройство" style="swimlane;childLayout=stackLayout;horizontal=1;startSize=50;horizontalStack=0;rounded=1;fontSize=14;fontStyle=0;strokeWidth=2;resizeParent=0;resizeLast=1;shadow=0;dashed=0;align=center;arcSize=4;whiteSpace=wrap;html=1;" vertex="1" parent="1">
          <mxGeometry x="1120" y="510" width="170" height="140" as="geometry" />
        </mxCell>
        <mxCell id="qg3Lb8YQpvy-kD-05aAl-2" value="*уникальный код устройства&lt;br&gt;модель&lt;br&gt;название&lt;br&gt;статус&lt;br&gt;режим энергосбережения" style="align=left;strokeColor=none;fillColor=none;spacingLeft=4;fontSize=12;verticalAlign=top;resizable=0;rotatable=0;part=1;html=1;" vertex="1" parent="qg3Lb8YQpvy-kD-05aAl-1">
          <mxGeometry y="50" width="170" height="90" as="geometry" />
        </mxCell>
        <mxCell id="a6lDtL_I2Y8vHIDIXr_I-4" value="" style="edgeStyle=entityRelationEdgeStyle;fontSize=12;html=1;endArrow=ERoneToMany;startArrow=ERmandOne;rounded=0;entryX=1.005;entryY=0.638;entryDx=0;entryDy=0;entryPerimeter=0;exitX=0.01;exitY=0.169;exitDx=0;exitDy=0;exitPerimeter=0;" edge="1" parent="1" source="9_xHHx5jtFG19MMG9YjI-5" target="QIb6Rati4UATx26R9QFl-2">
          <mxGeometry width="100" height="100" relative="1" as="geometry">
            <mxPoint x="340" y="160" as="sourcePoint" />
            <mxPoint x="470" y="270" as="targetPoint" />
          </mxGeometry>
        </mxCell>
        <mxCell id="AZoIgfqkTyZ59COdUmxe-2" value="включает" style="edgeLabel;html=1;align=center;verticalAlign=middle;resizable=0;points=[];" connectable="0" vertex="1" parent="a6lDtL_I2Y8vHIDIXr_I-4">
          <mxGeometry x="0.1079" y="3" relative="1" as="geometry">
            <mxPoint as="offset" />
          </mxGeometry>
        </mxCell>
        <mxCell id="a6lDtL_I2Y8vHIDIXr_I-6" value="Комната" style="swimlane;childLayout=stackLayout;horizontal=1;startSize=50;horizontalStack=0;rounded=1;fontSize=14;fontStyle=0;strokeWidth=2;resizeParent=0;resizeLast=1;shadow=0;dashed=0;align=center;arcSize=4;whiteSpace=wrap;html=1;" vertex="1" parent="1">
          <mxGeometry x="820" y="190" width="200" height="130" as="geometry" />
        </mxCell>
        <mxCell id="a6lDtL_I2Y8vHIDIXr_I-7" value="*название комнаты&lt;br&gt;количество устройств" style="align=left;strokeColor=none;fillColor=none;spacingLeft=4;fontSize=12;verticalAlign=top;resizable=0;rotatable=0;part=1;html=1;" vertex="1" parent="a6lDtL_I2Y8vHIDIXr_I-6">
          <mxGeometry y="50" width="200" height="80" as="geometry" />
        </mxCell>
        <mxCell id="aU9JqSthzwMvQFRWUp02-4" value="Сценарий" style="swimlane;childLayout=stackLayout;horizontal=1;startSize=50;horizontalStack=0;rounded=1;fontSize=14;fontStyle=0;strokeWidth=2;resizeParent=0;resizeLast=1;shadow=0;dashed=0;align=center;arcSize=4;whiteSpace=wrap;html=1;" vertex="1" parent="1">
          <mxGeometry x="440" y="640" width="160" height="130" as="geometry" />
        </mxCell>
        <mxCell id="aU9JqSthzwMvQFRWUp02-5" value="*название сценария&lt;br&gt;время включения&lt;br&gt;время окончания&lt;br&gt;количество устройств" style="align=left;strokeColor=none;fillColor=none;spacingLeft=4;fontSize=12;verticalAlign=top;resizable=0;rotatable=0;part=1;html=1;" vertex="1" parent="aU9JqSthzwMvQFRWUp02-4">
          <mxGeometry y="50" width="160" height="80" as="geometry" />
        </mxCell>
        <mxCell id="QIb6Rati4UATx26R9QFl-1" value="Дом пользователя" style="swimlane;childLayout=stackLayout;horizontal=1;startSize=50;horizontalStack=0;rounded=1;fontSize=14;fontStyle=0;strokeWidth=2;resizeParent=0;resizeLast=1;shadow=0;dashed=0;align=center;arcSize=4;whiteSpace=wrap;html=1;" vertex="1" parent="1">
          <mxGeometry x="70" y="165" width="160" height="125" as="geometry" />
        </mxCell>
        <mxCell id="QIb6Rati4UATx26R9QFl-2" value="*название дома&lt;br&gt;*e-mail" style="align=left;strokeColor=none;fillColor=none;spacingLeft=4;fontSize=12;verticalAlign=top;resizable=0;rotatable=0;part=1;html=1;" vertex="1" parent="QIb6Rati4UATx26R9QFl-1">
          <mxGeometry y="50" width="160" height="75" as="geometry" />
        </mxCell>
        <mxCell id="QIb6Rati4UATx26R9QFl-3" value="" style="edgeStyle=entityRelationEdgeStyle;fontSize=12;html=1;endArrow=ERoneToMany;startArrow=ERmandOne;rounded=0;entryX=0;entryY=0.5;entryDx=0;entryDy=0;exitX=1;exitY=0.25;exitDx=0;exitDy=0;" edge="1" parent="1" source="9_xHHx5jtFG19MMG9YjI-1" target="QIb6Rati4UATx26R9QFl-2">
          <mxGeometry width="100" height="100" relative="1" as="geometry">
            <mxPoint x="-60" y="150" as="sourcePoint" />
            <mxPoint x="-140" y="350" as="targetPoint" />
          </mxGeometry>
        </mxCell>
        <mxCell id="AZoIgfqkTyZ59COdUmxe-1" value="использует" style="edgeLabel;html=1;align=center;verticalAlign=middle;resizable=0;points=[];" connectable="0" vertex="1" parent="QIb6Rati4UATx26R9QFl-3">
          <mxGeometry x="-0.0202" y="1" relative="1" as="geometry">
            <mxPoint as="offset" />
          </mxGeometry>
        </mxCell>
        <mxCell id="QIb6Rati4UATx26R9QFl-5" value="Тип комнаты" style="swimlane;childLayout=stackLayout;horizontal=1;startSize=50;horizontalStack=0;rounded=1;fontSize=14;fontStyle=0;strokeWidth=2;resizeParent=0;resizeLast=1;shadow=0;dashed=0;align=center;arcSize=4;whiteSpace=wrap;html=1;" vertex="1" parent="1">
          <mxGeometry x="1190" y="190" width="180" height="130" as="geometry" />
        </mxCell>
        <mxCell id="QIb6Rati4UATx26R9QFl-6" value="*наименование типа&amp;nbsp;комнаты&lt;br&gt;иконка" style="align=left;strokeColor=none;fillColor=none;spacingLeft=4;fontSize=12;verticalAlign=top;resizable=0;rotatable=0;part=1;html=1;" vertex="1" parent="QIb6Rati4UATx26R9QFl-5">
          <mxGeometry y="50" width="180" height="80" as="geometry" />
        </mxCell>
        <mxCell id="QIb6Rati4UATx26R9QFl-7" value="Тип устройства" style="swimlane;childLayout=stackLayout;horizontal=1;startSize=50;horizontalStack=0;rounded=1;fontSize=14;fontStyle=0;strokeWidth=2;resizeParent=0;resizeLast=1;shadow=0;dashed=0;align=center;arcSize=4;whiteSpace=wrap;html=1;" vertex="1" parent="1">
          <mxGeometry x="1430" y="505" width="190" height="130" as="geometry" />
        </mxCell>
        <mxCell id="QIb6Rati4UATx26R9QFl-8" value="*наименование типа устройства&lt;br&gt;иконка" style="align=left;strokeColor=none;fillColor=none;spacingLeft=4;fontSize=12;verticalAlign=top;resizable=0;rotatable=0;part=1;html=1;" vertex="1" parent="QIb6Rati4UATx26R9QFl-7">
          <mxGeometry y="50" width="190" height="80" as="geometry" />
        </mxCell>
        <mxCell id="QIb6Rati4UATx26R9QFl-11" value="Устройство в сценарии" style="swimlane;childLayout=stackLayout;horizontal=1;startSize=50;horizontalStack=0;rounded=1;fontSize=14;fontStyle=0;strokeWidth=2;resizeParent=0;resizeLast=1;shadow=0;dashed=0;align=center;arcSize=4;whiteSpace=wrap;html=1;" vertex="1" parent="1">
          <mxGeometry x="750" y="670" width="170" height="140" as="geometry" />
        </mxCell>
        <mxCell id="QIb6Rati4UATx26R9QFl-12" value="*уникальный код устройства&lt;br&gt;*название сценария&lt;br&gt;&lt;br&gt;&lt;br&gt;" style="align=left;strokeColor=none;fillColor=none;spacingLeft=4;fontSize=12;verticalAlign=top;resizable=0;rotatable=0;part=1;html=1;" vertex="1" parent="QIb6Rati4UATx26R9QFl-11">
          <mxGeometry y="50" width="170" height="90" as="geometry" />
        </mxCell>
        <mxCell id="QIb6Rati4UATx26R9QFl-13" value="" style="edgeStyle=entityRelationEdgeStyle;fontSize=12;html=1;endArrow=ERoneToMany;startArrow=ERmandOne;rounded=0;exitX=1;exitY=0.202;exitDx=0;exitDy=0;exitPerimeter=0;entryX=0;entryY=0.5;entryDx=0;entryDy=0;" edge="1" parent="1" source="aU9JqSthzwMvQFRWUp02-4" target="QIb6Rati4UATx26R9QFl-12">
          <mxGeometry width="100" height="100" relative="1" as="geometry">
            <mxPoint x="580" y="795" as="sourcePoint" />
            <mxPoint x="680" y="695" as="targetPoint" />
          </mxGeometry>
        </mxCell>
        <mxCell id="AZoIgfqkTyZ59COdUmxe-16" value="использует" style="edgeLabel;html=1;align=center;verticalAlign=middle;resizable=0;points=[];" connectable="0" vertex="1" parent="QIb6Rati4UATx26R9QFl-13">
          <mxGeometry x="-0.1239" relative="1" as="geometry">
            <mxPoint as="offset" />
          </mxGeometry>
        </mxCell>
        <mxCell id="YEoSKInptozyuaUxbIzJ-1" value="" style="edgeStyle=entityRelationEdgeStyle;fontSize=12;html=1;endArrow=ERoneToMany;startArrow=ERmandOne;rounded=0;exitX=0;exitY=0.25;exitDx=0;exitDy=0;entryX=1;entryY=0.689;entryDx=0;entryDy=0;entryPerimeter=0;" edge="1" parent="1" source="qg3Lb8YQpvy-kD-05aAl-1" target="QIb6Rati4UATx26R9QFl-12">
          <mxGeometry width="100" height="100" relative="1" as="geometry">
            <mxPoint x="900" y="712.5" as="sourcePoint" />
            <mxPoint x="1020" y="800" as="targetPoint" />
          </mxGeometry>
        </mxCell>
        <mxCell id="AZoIgfqkTyZ59COdUmxe-15" value="содержит" style="edgeLabel;html=1;align=center;verticalAlign=middle;resizable=0;points=[];" connectable="0" vertex="1" parent="YEoSKInptozyuaUxbIzJ-1">
          <mxGeometry x="0.1014" y="-1" relative="1" as="geometry">
            <mxPoint x="1" as="offset" />
          </mxGeometry>
        </mxCell>
        <mxCell id="YEoSKInptozyuaUxbIzJ-2" value="День недели в сценарии" style="swimlane;childLayout=stackLayout;horizontal=1;startSize=50;horizontalStack=0;rounded=1;fontSize=14;fontStyle=0;strokeWidth=2;resizeParent=0;resizeLast=1;shadow=0;dashed=0;align=center;arcSize=4;whiteSpace=wrap;html=1;" vertex="1" parent="1">
          <mxGeometry x="170" y="640" width="160" height="120" as="geometry" />
        </mxCell>
        <mxCell id="YEoSKInptozyuaUxbIzJ-3" value="*название дня недели&lt;br&gt;*название сценария" style="align=left;strokeColor=none;fillColor=none;spacingLeft=4;fontSize=12;verticalAlign=top;resizable=0;rotatable=0;part=1;html=1;" vertex="1" parent="YEoSKInptozyuaUxbIzJ-2">
          <mxGeometry y="50" width="160" height="70" as="geometry" />
        </mxCell>
        <mxCell id="YEoSKInptozyuaUxbIzJ-4" value="День недели&amp;nbsp;" style="swimlane;childLayout=stackLayout;horizontal=1;startSize=50;horizontalStack=0;rounded=1;fontSize=14;fontStyle=0;strokeWidth=2;resizeParent=0;resizeLast=1;shadow=0;dashed=0;align=center;arcSize=4;whiteSpace=wrap;html=1;" vertex="1" parent="1">
          <mxGeometry x="-90" y="640" width="160" height="120" as="geometry" />
        </mxCell>
        <mxCell id="YEoSKInptozyuaUxbIzJ-5" value="*название дня недели&amp;nbsp;" style="align=left;strokeColor=none;fillColor=none;spacingLeft=4;fontSize=12;verticalAlign=top;resizable=0;rotatable=0;part=1;html=1;" vertex="1" parent="YEoSKInptozyuaUxbIzJ-4">
          <mxGeometry y="50" width="160" height="70" as="geometry" />
        </mxCell>
        <mxCell id="YEoSKInptozyuaUxbIzJ-6" value="" style="edgeStyle=entityRelationEdgeStyle;fontSize=12;html=1;endArrow=ERoneToMany;startArrow=ERmandOne;rounded=0;exitX=-0.01;exitY=0.219;exitDx=0;exitDy=0;exitPerimeter=0;entryX=1;entryY=0.75;entryDx=0;entryDy=0;" edge="1" parent="1" source="aU9JqSthzwMvQFRWUp02-4" target="YEoSKInptozyuaUxbIzJ-3">
          <mxGeometry width="100" height="100" relative="1" as="geometry">
            <mxPoint x="140" y="690" as="sourcePoint" />
            <mxPoint x="240" y="590" as="targetPoint" />
          </mxGeometry>
        </mxCell>
        <mxCell id="AZoIgfqkTyZ59COdUmxe-17" value="включает" style="edgeLabel;html=1;align=center;verticalAlign=middle;resizable=0;points=[];" connectable="0" vertex="1" parent="YEoSKInptozyuaUxbIzJ-6">
          <mxGeometry x="0.0513" y="-2" relative="1" as="geometry">
            <mxPoint x="1" as="offset" />
          </mxGeometry>
        </mxCell>
        <mxCell id="YEoSKInptozyuaUxbIzJ-8" value="" style="edgeStyle=entityRelationEdgeStyle;fontSize=12;html=1;endArrow=ERoneToMany;startArrow=ERmandOne;rounded=0;entryX=0;entryY=0.25;entryDx=0;entryDy=0;exitX=1;exitY=0.5;exitDx=0;exitDy=0;" edge="1" parent="1" source="YEoSKInptozyuaUxbIzJ-5" target="YEoSKInptozyuaUxbIzJ-2">
          <mxGeometry width="100" height="100" relative="1" as="geometry">
            <mxPoint x="70" y="790" as="sourcePoint" />
            <mxPoint x="340" y="753" as="targetPoint" />
          </mxGeometry>
        </mxCell>
        <mxCell id="AZoIgfqkTyZ59COdUmxe-18" value="содержит" style="edgeLabel;html=1;align=center;verticalAlign=middle;resizable=0;points=[];" connectable="0" vertex="1" parent="YEoSKInptozyuaUxbIzJ-8">
          <mxGeometry x="-0.1602" y="1" relative="1" as="geometry">
            <mxPoint as="offset" />
          </mxGeometry>
        </mxCell>
        <mxCell id="AZoIgfqkTyZ59COdUmxe-4" value="" style="edgeStyle=entityRelationEdgeStyle;fontSize=12;html=1;endArrow=ERzeroToMany;startArrow=ERmandOne;rounded=0;entryX=0.008;entryY=0.4;entryDx=0;entryDy=0;entryPerimeter=0;exitX=1.026;exitY=0.074;exitDx=0;exitDy=0;exitPerimeter=0;" edge="1" parent="1" source="9_xHHx5jtFG19MMG9YjI-5" target="a6lDtL_I2Y8vHIDIXr_I-7">
          <mxGeometry width="100" height="100" relative="1" as="geometry">
            <mxPoint x="545" y="202" as="sourcePoint" />
            <mxPoint x="870" y="230" as="targetPoint" />
          </mxGeometry>
        </mxCell>
        <mxCell id="AZoIgfqkTyZ59COdUmxe-5" value="включает" style="edgeLabel;html=1;align=center;verticalAlign=middle;resizable=0;points=[];" connectable="0" vertex="1" parent="AZoIgfqkTyZ59COdUmxe-4">
          <mxGeometry x="-0.0048" y="-1" relative="1" as="geometry">
            <mxPoint as="offset" />
          </mxGeometry>
        </mxCell>
        <mxCell id="AZoIgfqkTyZ59COdUmxe-6" value="" style="edgeStyle=entityRelationEdgeStyle;fontSize=12;html=1;endArrow=ERzeroToMany;startArrow=ERmandOne;rounded=0;exitX=1.026;exitY=0.074;exitDx=0;exitDy=0;exitPerimeter=0;entryX=-0.02;entryY=0.68;entryDx=0;entryDy=0;entryPerimeter=0;" edge="1" parent="1" target="qg3Lb8YQpvy-kD-05aAl-2">
          <mxGeometry width="100" height="100" relative="1" as="geometry">
            <mxPoint x="540" y="230" as="sourcePoint" />
            <mxPoint x="960" y="540" as="targetPoint" />
          </mxGeometry>
        </mxCell>
        <mxCell id="AZoIgfqkTyZ59COdUmxe-7" value="включает" style="edgeLabel;html=1;align=center;verticalAlign=middle;resizable=0;points=[];" connectable="0" vertex="1" parent="AZoIgfqkTyZ59COdUmxe-6">
          <mxGeometry x="-0.0048" y="-1" relative="1" as="geometry">
            <mxPoint as="offset" />
          </mxGeometry>
        </mxCell>
        <mxCell id="AZoIgfqkTyZ59COdUmxe-8" value="" style="edgeStyle=entityRelationEdgeStyle;fontSize=12;html=1;endArrow=ERzeroToMany;startArrow=ERmandOne;rounded=0;exitX=0;exitY=0.5;exitDx=0;exitDy=0;entryX=0.992;entryY=0.092;entryDx=0;entryDy=0;entryPerimeter=0;" edge="1" parent="1" source="QIb6Rati4UATx26R9QFl-6" target="a6lDtL_I2Y8vHIDIXr_I-6">
          <mxGeometry width="100" height="100" relative="1" as="geometry">
            <mxPoint x="1160" y="360" as="sourcePoint" />
            <mxPoint x="1260" y="260" as="targetPoint" />
          </mxGeometry>
        </mxCell>
        <mxCell id="AZoIgfqkTyZ59COdUmxe-9" value="содержит" style="edgeLabel;html=1;align=center;verticalAlign=middle;resizable=0;points=[];" connectable="0" vertex="1" parent="AZoIgfqkTyZ59COdUmxe-8">
          <mxGeometry x="0.0744" y="1" relative="1" as="geometry">
            <mxPoint as="offset" />
          </mxGeometry>
        </mxCell>
        <mxCell id="AZoIgfqkTyZ59COdUmxe-10" value="" style="edgeStyle=entityRelationEdgeStyle;fontSize=12;html=1;endArrow=ERzeroToMany;startArrow=ERmandOne;rounded=0;exitX=0;exitY=0.5;exitDx=0;exitDy=0;entryX=1.01;entryY=0.205;entryDx=0;entryDy=0;entryPerimeter=0;" edge="1" parent="1" source="QIb6Rati4UATx26R9QFl-8" target="qg3Lb8YQpvy-kD-05aAl-1">
          <mxGeometry width="100" height="100" relative="1" as="geometry">
            <mxPoint x="1512" y="448" as="sourcePoint" />
            <mxPoint x="1340" y="370" as="targetPoint" />
          </mxGeometry>
        </mxCell>
        <mxCell id="AZoIgfqkTyZ59COdUmxe-11" value="содержит" style="edgeLabel;html=1;align=center;verticalAlign=middle;resizable=0;points=[];" connectable="0" vertex="1" parent="AZoIgfqkTyZ59COdUmxe-10">
          <mxGeometry x="0.0744" y="1" relative="1" as="geometry">
            <mxPoint as="offset" />
          </mxGeometry>
        </mxCell>
        <mxCell id="AZoIgfqkTyZ59COdUmxe-12" value="" style="edgeStyle=entityRelationEdgeStyle;fontSize=12;html=1;endArrow=ERzeroToMany;startArrow=ERzeroToOne;rounded=0;exitX=1;exitY=0.308;exitDx=0;exitDy=0;exitPerimeter=0;entryX=0;entryY=0.25;entryDx=0;entryDy=0;" edge="1" parent="1" source="a6lDtL_I2Y8vHIDIXr_I-6" target="qg3Lb8YQpvy-kD-05aAl-2">
          <mxGeometry width="100" height="100" relative="1" as="geometry">
            <mxPoint x="1100" y="440" as="sourcePoint" />
            <mxPoint x="1200" y="340" as="targetPoint" />
          </mxGeometry>
        </mxCell>
        <mxCell id="AZoIgfqkTyZ59COdUmxe-14" value="включает" style="edgeLabel;html=1;align=center;verticalAlign=middle;resizable=0;points=[];" connectable="0" vertex="1" parent="AZoIgfqkTyZ59COdUmxe-12">
          <mxGeometry x="-0.0977" relative="1" as="geometry">
            <mxPoint as="offset" />
          </mxGeometry>
        </mxCell>
      </root>
    </mxGraphModel>
  </diagram>
</mxfile>
